<svg width="250" height="300" viewBox="0 0 250 300" fill="none" xmlns="http://www.w3.org/2000/svg">
<rect x="0.5" y="0.5" width="249" height="299" stroke="#EEF0F2"/>
<line y1="74.5" x2="250" y2="74.5" stroke="#EEF0F2"/>
<line y1="149.5" x2="250" y2="149.5" stroke="#EEF0F2"/>
<line y1="224.5" x2="250" y2="224.5" stroke="#EEF0F2"/>
<path d="M6.47088 166V157.273H7.5277V161.602H7.62997L11.5504 157.273H12.9311L9.26634 161.21L12.9311 166H11.6527L8.61861 161.943L7.5277 163.17V166H6.47088ZM14.5728 166V159.455H15.5785V166H14.5728ZM15.0842 158.364C14.8881 158.364 14.7191 158.297 14.5771 158.163C14.4379 158.03 14.3683 157.869 14.3683 157.682C14.3683 157.494 14.4379 157.334 14.5771 157.2C14.7191 157.067 14.8881 157 15.0842 157C15.2802 157 15.4478 157.067 15.587 157.2C15.729 157.334 15.8001 157.494 15.8001 157.682C15.8001 157.869 15.729 158.03 15.587 158.163C15.4478 158.297 15.2802 158.364 15.0842 158.364ZM20.267 159.455V160.307H16.875V159.455H20.267ZM17.8636 157.886H18.8693V164.125C18.8693 164.409 18.9105 164.622 18.9929 164.764C19.0781 164.903 19.1861 164.997 19.3168 165.045C19.4503 165.091 19.5909 165.114 19.7386 165.114C19.8494 165.114 19.9403 165.108 20.0114 165.097C20.0824 165.082 20.1392 165.071 20.1818 165.062L20.3864 165.966C20.3182 165.991 20.223 166.017 20.1009 166.043C19.9787 166.071 19.8239 166.085 19.6364 166.085C19.3523 166.085 19.0739 166.024 18.8011 165.902C18.5313 165.78 18.3068 165.594 18.1278 165.344C17.9517 165.094 17.8636 164.778 17.8636 164.398V157.886ZM24.3686 166.136C23.755 166.136 23.2266 165.991 22.7834 165.702C22.3402 165.412 21.9993 165.013 21.7607 164.504C21.522 163.996 21.4027 163.415 21.4027 162.761C21.4027 162.097 21.5249 161.51 21.7692 161.001C22.0163 160.49 22.3601 160.091 22.8004 159.804C23.2436 159.514 23.7607 159.369 24.3516 159.369C24.8118 159.369 25.2266 159.455 25.5959 159.625C25.9652 159.795 26.2678 160.034 26.5036 160.341C26.7393 160.648 26.8857 161.006 26.9425 161.415H25.9368C25.8601 161.116 25.6896 160.852 25.4254 160.622C25.1641 160.389 24.8118 160.273 24.3686 160.273C23.9766 160.273 23.6328 160.375 23.3374 160.58C23.0447 160.781 22.8161 161.067 22.6513 161.436C22.4893 161.803 22.4084 162.233 22.4084 162.727C22.4084 163.233 22.4879 163.673 22.647 164.048C22.8089 164.423 23.0362 164.714 23.3288 164.922C23.6243 165.129 23.9709 165.233 24.3686 165.233C24.63 165.233 24.8672 165.188 25.0803 165.097C25.2933 165.006 25.4737 164.875 25.6214 164.705C25.7692 164.534 25.8743 164.33 25.9368 164.091H26.9425C26.8857 164.477 26.745 164.825 26.5206 165.135C26.299 165.442 26.005 165.686 25.6385 165.868C25.2749 166.047 24.8516 166.136 24.3686 166.136ZM29.4183 162.062V166H28.4126V157.273H29.4183V160.477H29.5036C29.657 160.139 29.8871 159.871 30.1939 159.672C30.5036 159.47 30.9155 159.369 31.4297 159.369C31.8757 159.369 32.2663 159.459 32.6016 159.638C32.9368 159.814 33.1967 160.085 33.3814 160.452C33.5689 160.815 33.6626 161.278 33.6626 161.841V166H32.657V161.909C32.657 161.389 32.522 160.987 32.2521 160.703C31.9851 160.416 31.6143 160.273 31.1399 160.273C30.8104 160.273 30.5149 160.342 30.2536 160.482C29.995 160.621 29.7905 160.824 29.6399 161.091C29.4922 161.358 29.4183 161.682 29.4183 162.062ZM38.2468 166.136C37.6161 166.136 37.0721 165.997 36.6147 165.719C36.1602 165.438 35.8093 165.045 35.5621 164.543C35.3178 164.037 35.1957 163.449 35.1957 162.778C35.1957 162.108 35.3178 161.517 35.5621 161.006C35.8093 160.491 36.1531 160.091 36.5934 159.804C37.0366 159.514 37.5536 159.369 38.1445 159.369C38.4854 159.369 38.8221 159.426 39.1545 159.54C39.4869 159.653 39.7894 159.838 40.0621 160.094C40.3349 160.347 40.5522 160.682 40.7141 161.099C40.8761 161.517 40.957 162.031 40.957 162.642V163.068H35.9116V162.199H39.9343C39.9343 161.83 39.8604 161.5 39.7127 161.21C39.5678 160.92 39.3604 160.692 39.0906 160.524C38.8235 160.357 38.5082 160.273 38.1445 160.273C37.744 160.273 37.3974 160.372 37.1048 160.571C36.815 160.767 36.592 161.023 36.4357 161.338C36.2795 161.653 36.2013 161.991 36.2013 162.352V162.932C36.2013 163.426 36.2866 163.845 36.457 164.189C36.6303 164.53 36.8704 164.79 37.1772 164.969C37.484 165.145 37.8406 165.233 38.2468 165.233C38.511 165.233 38.7496 165.196 38.9627 165.122C39.1786 165.045 39.3647 164.932 39.521 164.781C39.6772 164.628 39.7979 164.437 39.8832 164.21L40.8548 164.483C40.7525 164.812 40.5806 165.102 40.3391 165.352C40.0977 165.599 39.7994 165.793 39.4442 165.932C39.0891 166.068 38.69 166.136 38.2468 166.136ZM43.4925 162.062V166H42.4869V159.455H43.4585V160.477H43.5437C43.6971 160.145 43.93 159.878 44.2425 159.676C44.555 159.472 44.9585 159.369 45.4528 159.369C45.896 159.369 46.2837 159.46 46.6161 159.642C46.9485 159.821 47.207 160.094 47.3917 160.46C47.5763 160.824 47.6687 161.284 47.6687 161.841V166H46.663V161.909C46.663 161.395 46.5295 160.994 46.2624 160.707C45.9954 160.418 45.6289 160.273 45.163 160.273C44.842 160.273 44.555 160.342 44.3022 160.482C44.0522 160.621 43.8548 160.824 43.7099 161.091C43.565 161.358 43.4925 161.682 43.4925 162.062Z" fill="#EEF0F2"/>
<path d="M6.25018 241V232.273H9.30131C9.90927 232.273 10.4107 232.378 10.8056 232.588C11.2005 232.795 11.4945 233.075 11.6877 233.428C11.8809 233.777 11.9775 234.165 11.9775 234.591C11.9775 234.966 11.9107 235.276 11.7772 235.52C11.6465 235.764 11.4732 235.957 11.2573 236.099C11.0442 236.241 10.8127 236.347 10.5627 236.415V236.5C10.8297 236.517 11.0982 236.611 11.3681 236.781C11.638 236.952 11.8638 237.196 12.0456 237.514C12.2275 237.832 12.3184 238.222 12.3184 238.682C12.3184 239.119 12.2189 239.513 12.0201 239.862C11.8212 240.212 11.5073 240.489 11.0783 240.693C10.6493 240.898 10.0911 241 9.40359 241H6.25018ZM7.307 240.062H9.40359C10.0939 240.062 10.584 239.929 10.8738 239.662C11.1664 239.392 11.3127 239.065 11.3127 238.682C11.3127 238.386 11.2374 238.114 11.0868 237.864C10.9363 237.611 10.7218 237.409 10.4434 237.259C10.165 237.105 9.8354 237.028 9.45472 237.028H7.307V240.062ZM7.307 236.108H9.26722C9.5854 236.108 9.87234 236.045 10.128 235.92C10.3865 235.795 10.5911 235.619 10.7417 235.392C10.8951 235.165 10.9718 234.898 10.9718 234.591C10.9718 234.207 10.8382 233.882 10.5712 233.615C10.3042 233.345 9.88086 233.21 9.30131 233.21H7.307V236.108ZM15.8446 241.153C15.4299 241.153 15.0534 241.075 14.7154 240.919C14.3773 240.76 14.1088 240.531 13.91 240.233C13.7111 239.932 13.6117 239.568 13.6117 239.142C13.6117 238.767 13.6855 238.463 13.8333 238.23C13.981 237.994 14.1784 237.81 14.4256 237.676C14.6728 237.543 14.9455 237.443 15.2438 237.378C15.5449 237.31 15.8475 237.256 16.1515 237.216C16.5492 237.165 16.8716 237.126 17.1188 237.101C17.3688 237.072 17.5506 237.026 17.6642 236.96C17.7807 236.895 17.839 236.781 17.839 236.619V236.585C17.839 236.165 17.7239 235.838 17.4938 235.605C17.2665 235.372 16.9213 235.256 16.4583 235.256C15.9782 235.256 15.6017 235.361 15.329 235.571C15.0563 235.781 14.8645 236.006 14.7537 236.244L13.7992 235.903C13.9696 235.506 14.1969 235.196 14.481 234.974C14.7679 234.75 15.0804 234.594 15.4185 234.506C15.7594 234.415 16.0946 234.369 16.4242 234.369C16.6344 234.369 16.8759 234.395 17.1486 234.446C17.4242 234.494 17.6898 234.595 17.9455 234.749C18.204 234.902 18.4185 235.134 18.589 235.443C18.7594 235.753 18.8446 236.168 18.8446 236.688V241H17.839V240.114H17.7878C17.7196 240.256 17.606 240.408 17.4469 240.57C17.2878 240.732 17.0762 240.869 16.812 240.983C16.5478 241.097 16.2253 241.153 15.8446 241.153ZM15.998 240.25C16.3958 240.25 16.731 240.172 17.0037 240.016C17.2793 239.859 17.4867 239.658 17.6259 239.411C17.7679 239.163 17.839 238.903 17.839 238.631V237.71C17.7963 237.761 17.7026 237.808 17.5577 237.851C17.4157 237.891 17.2509 237.926 17.0634 237.957C16.8787 237.986 16.6983 238.011 16.5222 238.034C16.3489 238.054 16.2083 238.071 16.1003 238.085C15.839 238.119 15.5946 238.175 15.3674 238.251C15.1429 238.325 14.9611 238.437 14.8219 238.588C14.6855 238.736 14.6174 238.937 14.6174 239.193C14.6174 239.543 14.7466 239.807 15.0051 239.986C15.2665 240.162 15.5975 240.25 15.998 240.25ZM25.3166 235.92L24.4132 236.176C24.3564 236.026 24.2725 235.879 24.1618 235.737C24.0538 235.592 23.9061 235.473 23.7186 235.379C23.5311 235.286 23.291 235.239 22.9984 235.239C22.5978 235.239 22.264 235.331 21.997 235.516C21.7328 235.697 21.6007 235.929 21.6007 236.21C21.6007 236.46 21.6916 236.658 21.8734 236.803C22.0552 236.947 22.3393 237.068 22.7257 237.165L23.6973 237.403C24.2825 237.545 24.7186 237.763 25.0055 238.055C25.2924 238.345 25.4359 238.719 25.4359 239.176C25.4359 239.551 25.3279 239.886 25.112 240.182C24.899 240.477 24.6007 240.71 24.2172 240.881C23.8336 241.051 23.3876 241.136 22.8791 241.136C22.2115 241.136 21.6589 240.991 21.2214 240.702C20.7839 240.412 20.5069 239.989 20.3904 239.432L21.345 239.193C21.4359 239.545 21.6078 239.81 21.8606 239.986C22.1163 240.162 22.4501 240.25 22.862 240.25C23.3308 240.25 23.7029 240.151 23.9785 239.952C24.2569 239.75 24.3961 239.509 24.3961 239.227C24.3961 239 24.3166 238.81 24.1575 238.656C23.9984 238.5 23.7541 238.384 23.4245 238.307L22.3336 238.051C21.7342 237.909 21.2939 237.689 21.0126 237.391C20.7342 237.089 20.595 236.713 20.595 236.261C20.595 235.892 20.6987 235.565 20.9061 235.281C21.1163 234.997 21.4018 234.774 21.7626 234.612C22.1262 234.45 22.5382 234.369 22.9984 234.369C23.6461 234.369 24.1547 234.511 24.524 234.795C24.8961 235.08 25.1603 235.455 25.3166 235.92ZM29.6941 241.136C29.0634 241.136 28.5194 240.997 28.062 240.719C27.6074 240.438 27.2566 240.045 27.0094 239.543C26.7651 239.037 26.6429 238.449 26.6429 237.778C26.6429 237.108 26.7651 236.517 27.0094 236.006C27.2566 235.491 27.6003 235.091 28.0407 234.804C28.4838 234.514 29.0009 234.369 29.5918 234.369C29.9327 234.369 30.2694 234.426 30.6017 234.54C30.9341 234.653 31.2367 234.838 31.5094 235.094C31.7821 235.347 31.9995 235.682 32.1614 236.099C32.3233 236.517 32.4043 237.031 32.4043 237.642V238.068H27.3588V237.199H31.3816C31.3816 236.83 31.3077 236.5 31.16 236.21C31.0151 235.92 30.8077 235.692 30.5378 235.524C30.2708 235.357 29.9554 235.273 29.5918 235.273C29.1912 235.273 28.8446 235.372 28.552 235.571C28.2623 235.767 28.0392 236.023 27.883 236.338C27.7267 236.653 27.6486 236.991 27.6486 237.352V237.932C27.6486 238.426 27.7338 238.845 27.9043 239.189C28.0776 239.53 28.3176 239.79 28.6245 239.969C28.9313 240.145 29.2878 240.233 29.6941 240.233C29.9583 240.233 30.1969 240.196 30.41 240.122C30.6259 240.045 30.812 239.932 30.9682 239.781C31.1245 239.628 31.2452 239.437 31.3304 239.21L32.302 239.483C32.1998 239.812 32.0279 240.102 31.7864 240.352C31.5449 240.599 31.2466 240.793 30.8915 240.932C30.5364 241.068 30.1373 241.136 29.6941 241.136ZM33.9341 241V234.455H34.9057V235.477H34.9909C35.1273 235.128 35.3475 234.857 35.6515 234.663C35.9554 234.467 36.3205 234.369 36.7466 234.369C37.1784 234.369 37.5378 234.467 37.8248 234.663C38.1145 234.857 38.3404 235.128 38.5023 235.477H38.5705C38.7381 235.139 38.9895 234.871 39.3248 234.672C39.66 234.47 40.062 234.369 40.5307 234.369C41.1159 234.369 41.5946 234.553 41.9668 234.919C42.339 235.283 42.525 235.849 42.525 236.619V241H41.5194V236.619C41.5194 236.136 41.3873 235.791 41.123 235.584C40.8588 235.376 40.5478 235.273 40.1898 235.273C39.7296 235.273 39.373 235.412 39.1202 235.69C38.8674 235.966 38.7409 236.315 38.7409 236.739V241H37.7182V236.517C37.7182 236.145 37.5975 235.845 37.356 235.618C37.1145 235.388 36.8034 235.273 36.4228 235.273C36.1614 235.273 35.9171 235.342 35.6898 235.482C35.4654 235.621 35.2836 235.814 35.1444 236.061C35.008 236.305 34.9398 236.588 34.9398 236.909V241H33.9341ZM47.1081 241.136C46.4775 241.136 45.9334 240.997 45.476 240.719C45.0215 240.438 44.6706 240.045 44.4235 239.543C44.1792 239.037 44.057 238.449 44.057 237.778C44.057 237.108 44.1792 236.517 44.4235 236.006C44.6706 235.491 45.0144 235.091 45.4547 234.804C45.8979 234.514 46.415 234.369 47.0059 234.369C47.3468 234.369 47.6834 234.426 48.0158 234.54C48.3482 234.653 48.6507 234.838 48.9235 235.094C49.1962 235.347 49.4135 235.682 49.5755 236.099C49.7374 236.517 49.8184 237.031 49.8184 237.642V238.068H44.7729V237.199H48.7956C48.7956 236.83 48.7218 236.5 48.574 236.21C48.4292 235.92 48.2218 235.692 47.9519 235.524C47.6848 235.357 47.3695 235.273 47.0059 235.273C46.6053 235.273 46.2587 235.372 45.9661 235.571C45.6763 235.767 45.4533 236.023 45.2971 236.338C45.1408 236.653 45.0627 236.991 45.0627 237.352V237.932C45.0627 238.426 45.1479 238.845 45.3184 239.189C45.4917 239.53 45.7317 239.79 46.0385 239.969C46.3453 240.145 46.7019 240.233 47.1081 240.233C47.3723 240.233 47.611 240.196 47.824 240.122C48.04 240.045 48.226 239.932 48.3823 239.781C48.5385 239.628 48.6593 239.437 48.7445 239.21L49.7161 239.483C49.6138 239.812 49.4419 240.102 49.2005 240.352C48.959 240.599 48.6607 240.793 48.3056 240.932C47.9505 241.068 47.5513 241.136 47.1081 241.136ZM52.3539 237.062V241H51.3482V234.455H52.3198V235.477H52.405C52.5584 235.145 52.7914 234.878 53.1039 234.676C53.4164 234.472 53.8198 234.369 54.3141 234.369C54.7573 234.369 55.1451 234.46 55.4775 234.642C55.8098 234.821 56.0684 235.094 56.253 235.46C56.4377 235.824 56.53 236.284 56.53 236.841V241H55.5243V236.909C55.5243 236.395 55.3908 235.994 55.1238 235.707C54.8567 235.418 54.4902 235.273 54.0243 235.273C53.7033 235.273 53.4164 235.342 53.1635 235.482C52.9135 235.621 52.7161 235.824 52.5712 236.091C52.4263 236.358 52.3539 236.682 52.3539 237.062ZM61.2143 234.455V235.307H57.8223V234.455H61.2143ZM58.8109 232.886H59.8166V239.125C59.8166 239.409 59.8578 239.622 59.9402 239.764C60.0254 239.903 60.1333 239.997 60.264 240.045C60.3975 240.091 60.5382 240.114 60.6859 240.114C60.7967 240.114 60.8876 240.108 60.9586 240.097C61.0297 240.082 61.0865 240.071 61.1291 240.062L61.3336 240.966C61.2654 240.991 61.1703 241.017 61.0481 241.043C60.926 241.071 60.7711 241.085 60.5836 241.085C60.2995 241.085 60.0211 241.024 59.7484 240.902C59.4785 240.78 59.2541 240.594 59.0751 240.344C58.899 240.094 58.8109 239.778 58.8109 239.398V232.886Z" fill="#EEF0F2"/>
<path d="M226.25 143L225.996 205" stroke="#FFE99D" stroke-width="0.5" stroke-linecap="round"/>
<path d="M226 219V295" stroke="#FFE99D" stroke-width="0.5" stroke-linecap="round"/>
<path d="M34 197L165 212" stroke="#FFE99D" stroke-width="0.5" stroke-linecap="round"/>
<path d="M211.265 141V133.727H213.723C214.291 133.727 214.757 133.824 215.122 134.018C215.487 134.21 215.756 134.474 215.932 134.81C216.107 135.147 216.194 135.529 216.194 135.957C216.194 136.386 216.107 136.766 215.932 137.097C215.756 137.429 215.488 137.689 215.126 137.879C214.763 138.066 214.3 138.159 213.737 138.159H211.748V137.364H213.709C214.097 137.364 214.409 137.307 214.646 137.193C214.885 137.08 215.058 136.919 215.165 136.71C215.273 136.5 215.328 136.249 215.328 135.957C215.328 135.666 215.273 135.412 215.165 135.194C215.056 134.976 214.882 134.808 214.643 134.69C214.403 134.569 214.087 134.509 213.694 134.509H212.146V141H211.265ZM214.689 137.733L216.479 141H215.456L213.694 137.733H214.689ZM219.706 141.114C219.213 141.114 218.781 140.996 218.409 140.762C218.04 140.528 217.751 140.2 217.543 139.778C217.337 139.357 217.234 138.865 217.234 138.301C217.234 137.733 217.337 137.237 217.543 136.813C217.751 136.389 218.04 136.06 218.409 135.826C218.781 135.592 219.213 135.474 219.706 135.474C220.198 135.474 220.629 135.592 220.998 135.826C221.37 136.06 221.659 136.389 221.865 136.813C222.073 137.237 222.177 137.733 222.177 138.301C222.177 138.865 222.073 139.357 221.865 139.778C221.659 140.2 221.37 140.528 220.998 140.762C220.629 140.996 220.198 141.114 219.706 141.114ZM219.706 140.361C220.08 140.361 220.387 140.265 220.629 140.073C220.87 139.881 221.049 139.629 221.165 139.317C221.281 139.004 221.339 138.666 221.339 138.301C221.339 137.937 221.281 137.597 221.165 137.282C221.049 136.967 220.87 136.713 220.629 136.518C220.387 136.324 220.08 136.227 219.706 136.227C219.332 136.227 219.024 136.324 218.782 136.518C218.541 136.713 218.362 136.967 218.246 137.282C218.13 137.597 218.072 137.937 218.072 138.301C218.072 138.666 218.13 139.004 218.246 139.317C218.362 139.629 218.541 139.881 218.782 140.073C219.024 140.265 219.332 140.361 219.706 140.361ZM226.894 138.77V135.545H227.732V141H226.894V140.077H226.837C226.709 140.354 226.51 140.589 226.241 140.783C225.971 140.975 225.63 141.071 225.218 141.071C224.877 141.071 224.574 140.996 224.309 140.847C224.044 140.696 223.835 140.469 223.684 140.165C223.532 139.86 223.456 139.475 223.456 139.011V135.545H224.295V138.955C224.295 139.352 224.406 139.67 224.628 139.906C224.853 140.143 225.14 140.261 225.488 140.261C225.696 140.261 225.908 140.208 226.123 140.102C226.341 139.995 226.523 139.832 226.67 139.612C226.819 139.391 226.894 139.111 226.894 138.77ZM231.639 135.545V136.256H228.812V135.545H231.639ZM229.636 134.239H230.474V139.438C230.474 139.674 230.509 139.852 230.577 139.97C230.648 140.086 230.738 140.164 230.847 140.205C230.959 140.242 231.076 140.261 231.199 140.261C231.291 140.261 231.367 140.257 231.426 140.247C231.485 140.235 231.533 140.226 231.568 140.219L231.739 140.972C231.682 140.993 231.603 141.014 231.501 141.036C231.399 141.059 231.27 141.071 231.114 141.071C230.877 141.071 230.645 141.02 230.418 140.918C230.193 140.817 230.006 140.661 229.857 140.453C229.71 140.245 229.636 139.982 229.636 139.665V134.239ZM235.128 141.114C234.603 141.114 234.149 140.998 233.768 140.766C233.389 140.531 233.097 140.205 232.891 139.786C232.687 139.364 232.586 138.874 232.586 138.315C232.586 137.757 232.687 137.264 232.891 136.838C233.097 136.41 233.383 136.076 233.75 135.837C234.12 135.595 234.551 135.474 235.043 135.474C235.327 135.474 235.608 135.522 235.885 135.616C236.162 135.711 236.414 135.865 236.641 136.078C236.868 136.289 237.049 136.568 237.184 136.916C237.319 137.264 237.387 137.693 237.387 138.202V138.557H233.182V137.832H236.534C236.534 137.525 236.473 137.25 236.35 137.009C236.229 136.767 236.056 136.576 235.831 136.437C235.609 136.297 235.346 136.227 235.043 136.227C234.709 136.227 234.42 136.31 234.176 136.476C233.935 136.639 233.749 136.852 233.619 137.115C233.489 137.378 233.424 137.66 233.424 137.96V138.443C233.424 138.855 233.495 139.204 233.637 139.491C233.781 139.775 233.981 139.991 234.237 140.141C234.493 140.287 234.79 140.361 235.128 140.361C235.348 140.361 235.547 140.33 235.725 140.268C235.905 140.205 236.06 140.11 236.19 139.984C236.32 139.857 236.421 139.698 236.492 139.509L237.301 139.736C237.216 140.01 237.073 140.252 236.872 140.46C236.671 140.666 236.422 140.827 236.126 140.943C235.83 141.057 235.498 141.114 235.128 141.114ZM238.662 141V135.545H239.471V136.369H239.528C239.627 136.099 239.807 135.88 240.068 135.712C240.328 135.544 240.622 135.46 240.949 135.46C241.01 135.46 241.087 135.461 241.179 135.464C241.272 135.466 241.342 135.47 241.389 135.474V136.327C241.36 136.32 241.295 136.309 241.194 136.295C241.094 136.278 240.989 136.27 240.877 136.27C240.612 136.27 240.376 136.326 240.167 136.437C239.961 136.546 239.798 136.697 239.677 136.891C239.559 137.083 239.5 137.302 239.5 137.548V141H238.662Z" fill="#EEF0F2"/>
<path d="M12.1028 85C12.0091 84.7131 11.8855 84.456 11.7321 84.2287C11.5815 83.9986 11.4011 83.8026 11.1909 83.6406C10.9835 83.4787 10.7477 83.3551 10.4835 83.2699C10.2193 83.1847 9.92951 83.142 9.61417 83.142C9.09712 83.142 8.62695 83.2756 8.20366 83.5426C7.78036 83.8097 7.44371 84.2031 7.19371 84.723C6.94371 85.2429 6.81871 85.8807 6.81871 86.6364C6.81871 87.392 6.94514 88.0298 7.19798 88.5497C7.45082 89.0696 7.79315 89.4631 8.22496 89.7301C8.65678 89.9972 9.14258 90.1307 9.68235 90.1307C10.1824 90.1307 10.6227 90.0241 11.0034 89.8111C11.3869 89.5952 11.6852 89.2912 11.8983 88.8991C12.1142 88.5043 12.2221 88.0398 12.2221 87.5057L12.546 87.5739H9.92099V86.6364H13.2449V87.5739C13.2449 88.2926 13.0914 88.9176 12.7846 89.4489C12.4806 89.9801 12.0602 90.392 11.5233 90.6847C10.9892 90.9744 10.3755 91.1193 9.68235 91.1193C8.90962 91.1193 8.23065 90.9375 7.64542 90.5739C7.06303 90.2102 6.60849 89.6932 6.28178 89.0227C5.95792 88.3523 5.79599 87.5568 5.79599 86.6364C5.79599 85.946 5.88832 85.3253 6.07298 84.7741C6.26048 84.2202 6.52468 83.7486 6.86559 83.3594C7.2065 82.9702 7.60991 82.6719 8.07582 82.4645C8.54173 82.2571 9.05451 82.1534 9.61417 82.1534C10.0744 82.1534 10.5034 82.223 10.9011 82.3622C11.3017 82.4986 11.6582 82.6932 11.9707 82.946C12.286 83.196 12.5488 83.4957 12.7591 83.8452C12.9693 84.1918 13.1142 84.5767 13.1937 85H12.1028ZM14.9185 91V84.4545H15.8901V85.4432H15.9583C16.0776 85.1193 16.2935 84.8565 16.606 84.6548C16.9185 84.4531 17.2708 84.3523 17.6628 84.3523C17.7367 84.3523 17.829 84.3537 17.9398 84.3565C18.0506 84.3594 18.1344 84.3636 18.1912 84.3693V85.392C18.1571 85.3835 18.079 85.3707 17.9569 85.3537C17.8375 85.3338 17.7111 85.3239 17.5776 85.3239C17.2594 85.3239 16.9753 85.3906 16.7253 85.5241C16.4782 85.6548 16.2821 85.8366 16.1373 86.0696C15.9952 86.2997 15.9242 86.5625 15.9242 86.858V91H14.9185ZM21.8432 91.1364C21.2523 91.1364 20.7338 90.9957 20.2878 90.7145C19.8446 90.4332 19.498 90.0398 19.248 89.5341C19.0009 89.0284 18.8773 88.4375 18.8773 87.7614C18.8773 87.0795 19.0009 86.4844 19.248 85.9759C19.498 85.4673 19.8446 85.0724 20.2878 84.7912C20.7338 84.5099 21.2523 84.3693 21.8432 84.3693C22.4341 84.3693 22.9512 84.5099 23.3944 84.7912C23.8404 85.0724 24.187 85.4673 24.4341 85.9759C24.6841 86.4844 24.8091 87.0795 24.8091 87.7614C24.8091 88.4375 24.6841 89.0284 24.4341 89.5341C24.187 90.0398 23.8404 90.4332 23.3944 90.7145C22.9512 90.9957 22.4341 91.1364 21.8432 91.1364ZM21.8432 90.233C22.2921 90.233 22.6614 90.1179 22.9512 89.8878C23.2409 89.6577 23.4554 89.3551 23.5946 88.9801C23.7338 88.6051 23.8034 88.1989 23.8034 87.7614C23.8034 87.3239 23.7338 86.9162 23.5946 86.5384C23.4554 86.1605 23.2409 85.8551 22.9512 85.6222C22.6614 85.3892 22.2921 85.2727 21.8432 85.2727C21.3944 85.2727 21.025 85.3892 20.7353 85.6222C20.4455 85.8551 20.231 86.1605 20.0918 86.5384C19.9526 86.9162 19.883 87.3239 19.883 87.7614C19.883 88.1989 19.9526 88.6051 20.0918 88.9801C20.231 89.3551 20.4455 89.6577 20.7353 89.8878C21.025 90.1179 21.3944 90.233 21.8432 90.233ZM30.4693 88.3239V84.4545H31.475V91H30.4693V89.892H30.4011C30.2477 90.2244 30.0091 90.5071 29.6852 90.7401C29.3613 90.9702 28.9522 91.0852 28.4579 91.0852C28.0488 91.0852 27.6852 90.9957 27.367 90.8168C27.0488 90.6349 26.7988 90.3622 26.617 89.9986C26.4352 89.6321 26.3443 89.1705 26.3443 88.6136V84.4545H27.35V88.5455C27.35 89.0227 27.4835 89.4034 27.7505 89.6875C28.0204 89.9716 28.3642 90.1136 28.7818 90.1136C29.0318 90.1136 29.286 90.0497 29.5446 89.9219C29.8059 89.794 30.0247 89.598 30.2008 89.3338C30.3798 89.0696 30.4693 88.733 30.4693 88.3239ZM34.3226 87.0625V91H33.3169V84.4545H34.2885V85.4773H34.3738C34.5272 85.1449 34.7601 84.8778 35.0726 84.6761C35.3851 84.4716 35.7885 84.3693 36.2828 84.3693C36.726 84.3693 37.1138 84.4602 37.4462 84.642C37.7786 84.821 38.0371 85.0938 38.2218 85.4602C38.4064 85.8239 38.4988 86.2841 38.4988 86.8409V91H37.4931V86.9091C37.4931 86.3949 37.3596 85.9943 37.0925 85.7074C36.8255 85.4176 36.459 85.2727 35.9931 85.2727C35.6721 85.2727 35.3851 85.3423 35.1323 85.4815C34.8823 85.6207 34.6848 85.8239 34.54 86.0909C34.3951 86.358 34.3226 86.6818 34.3226 87.0625ZM42.8081 91.1364C42.2626 91.1364 41.7811 90.9986 41.3635 90.723C40.9458 90.4446 40.6191 90.0526 40.3833 89.5469C40.1475 89.0384 40.0297 88.4375 40.0297 87.7443C40.0297 87.0568 40.1475 86.4602 40.3833 85.9545C40.6191 85.4489 40.9473 85.0582 41.3677 84.7827C41.7882 84.5071 42.274 84.3693 42.8251 84.3693C43.2512 84.3693 43.5879 84.4403 43.835 84.5824C44.085 84.7216 44.2754 84.8807 44.4061 85.0597C44.5396 85.2358 44.6433 85.3807 44.7172 85.4943H44.8024V82.2727H45.8081V91H44.8365V89.9943H44.7172C44.6433 90.1136 44.5382 90.2642 44.4018 90.446C44.2654 90.625 44.0708 90.7855 43.818 90.9276C43.5652 91.0668 43.2285 91.1364 42.8081 91.1364ZM42.9444 90.233C43.3478 90.233 43.6887 90.1278 43.9672 89.9176C44.2456 89.7045 44.4572 89.4105 44.6021 89.0355C44.747 88.6577 44.8194 88.2216 44.8194 87.7273C44.8194 87.2386 44.7484 86.8111 44.6064 86.4446C44.4643 86.0753 44.2541 85.7884 43.9757 85.5838C43.6973 85.3764 43.3535 85.2727 42.9444 85.2727C42.5183 85.2727 42.1632 85.3821 41.8791 85.6009C41.5978 85.8168 41.3862 86.1108 41.2441 86.483C41.1049 86.8523 41.0353 87.267 41.0353 87.7273C41.0353 88.1932 41.1064 88.6165 41.2484 88.9972C41.3933 89.375 41.6064 89.6761 41.8876 89.9006C42.1717 90.1222 42.524 90.233 42.9444 90.233ZM51.301 91V82.2727H56.5339V83.2102H52.3578V86.1591H56.1419V87.0966H52.3578V91H51.301ZM59.2132 82.2727V91H58.2076V82.2727H59.2132ZM63.7143 91.1364C63.1234 91.1364 62.6049 90.9957 62.1589 90.7145C61.7157 90.4332 61.3691 90.0398 61.1191 89.5341C60.872 89.0284 60.7484 88.4375 60.7484 87.7614C60.7484 87.0795 60.872 86.4844 61.1191 85.9759C61.3691 85.4673 61.7157 85.0724 62.1589 84.7912C62.6049 84.5099 63.1234 84.3693 63.7143 84.3693C64.3052 84.3693 64.8223 84.5099 65.2654 84.7912C65.7115 85.0724 66.0581 85.4673 66.3052 85.9759C66.5552 86.4844 66.6802 87.0795 66.6802 87.7614C66.6802 88.4375 66.5552 89.0284 66.3052 89.5341C66.0581 90.0398 65.7115 90.4332 65.2654 90.7145C64.8223 90.9957 64.3052 91.1364 63.7143 91.1364ZM63.7143 90.233C64.1632 90.233 64.5325 90.1179 64.8223 89.8878C65.112 89.6577 65.3265 89.3551 65.4657 88.9801C65.6049 88.6051 65.6745 88.1989 65.6745 87.7614C65.6745 87.3239 65.6049 86.9162 65.4657 86.5384C65.3265 86.1605 65.112 85.8551 64.8223 85.6222C64.5325 85.3892 64.1632 85.2727 63.7143 85.2727C63.2654 85.2727 62.8961 85.3892 62.6064 85.6222C62.3166 85.8551 62.1021 86.1605 61.9629 86.5384C61.8237 86.9162 61.7541 87.3239 61.7541 87.7614C61.7541 88.1989 61.8237 88.6051 61.9629 88.9801C62.1021 89.3551 62.3166 89.6577 62.6064 89.8878C62.8961 90.1179 63.2654 90.233 63.7143 90.233ZM70.8745 91.1364C70.2836 91.1364 69.7651 90.9957 69.3191 90.7145C68.8759 90.4332 68.5293 90.0398 68.2793 89.5341C68.0321 89.0284 67.9086 88.4375 67.9086 87.7614C67.9086 87.0795 68.0321 86.4844 68.2793 85.9759C68.5293 85.4673 68.8759 85.0724 69.3191 84.7912C69.7651 84.5099 70.2836 84.3693 70.8745 84.3693C71.4654 84.3693 71.9824 84.5099 72.4256 84.7912C72.8716 85.0724 73.2182 85.4673 73.4654 85.9759C73.7154 86.4844 73.8404 87.0795 73.8404 87.7614C73.8404 88.4375 73.7154 89.0284 73.4654 89.5341C73.2182 90.0398 72.8716 90.4332 72.4256 90.7145C71.9824 90.9957 71.4654 91.1364 70.8745 91.1364ZM70.8745 90.233C71.3233 90.233 71.6926 90.1179 71.9824 89.8878C72.2722 89.6577 72.4867 89.3551 72.6259 88.9801C72.7651 88.6051 72.8347 88.1989 72.8347 87.7614C72.8347 87.3239 72.7651 86.9162 72.6259 86.5384C72.4867 86.1605 72.2722 85.8551 71.9824 85.6222C71.6926 85.3892 71.3233 85.2727 70.8745 85.2727C70.4256 85.2727 70.0563 85.3892 69.7665 85.6222C69.4767 85.8551 69.2623 86.1605 69.123 86.5384C68.9838 86.9162 68.9142 87.3239 68.9142 87.7614C68.9142 88.1989 68.9838 88.6051 69.123 88.9801C69.2623 89.3551 69.4767 89.6577 69.7665 89.8878C70.0563 90.1179 70.4256 90.233 70.8745 90.233ZM75.3755 91V84.4545H76.3471V85.4432H76.4153C76.5346 85.1193 76.7505 84.8565 77.063 84.6548C77.3755 84.4531 77.7278 84.3523 78.1199 84.3523C78.1937 84.3523 78.286 84.3537 78.3968 84.3565C78.5076 84.3594 78.5914 84.3636 78.6483 84.3693V85.392C78.6142 85.3835 78.536 85.3707 78.4139 85.3537C78.2946 85.3338 78.1681 85.3239 78.0346 85.3239C77.7164 85.3239 77.4324 85.3906 77.1824 85.5241C76.9352 85.6548 76.7392 85.8366 76.5943 86.0696C76.4522 86.2997 76.3812 86.5625 76.3812 86.858V91H75.3755Z" fill="#EEF0F2"/>
<rect y="1" width="250" height="74" fill="#D9D9D9" fill-opacity="0.34"/>
<path d="M39.3719 42V34.7273H41.8293C42.3975 34.7273 42.8638 34.8243 43.2284 35.0185C43.593 35.2102 43.8629 35.4742 44.0381 35.8104C44.2133 36.1465 44.3009 36.5289 44.3009 36.9574C44.3009 37.3859 44.2133 37.7659 44.0381 38.0973C43.8629 38.4287 43.5942 38.6892 43.232 38.8786C42.8698 39.0656 42.4069 39.1591 41.8435 39.1591H39.8548V38.3636H41.8151C42.2033 38.3636 42.5158 38.3068 42.7526 38.1932C42.9917 38.0795 43.1645 37.9186 43.271 37.7102C43.3799 37.4995 43.4344 37.2486 43.4344 36.9574C43.4344 36.6662 43.3799 36.4117 43.271 36.1939C43.1621 35.9761 42.9881 35.808 42.749 35.6896C42.5099 35.5689 42.1939 35.5085 41.8009 35.5085H40.2526V42H39.3719ZM42.7952 38.733L44.585 42H43.5622L41.8009 38.733H42.7952ZM47.8831 42.1136C47.3575 42.1136 46.9041 41.9976 46.523 41.7656C46.1442 41.5312 45.8518 41.2045 45.6459 40.7855C45.4423 40.3641 45.3405 39.8741 45.3405 39.3153C45.3405 38.7566 45.4423 38.2642 45.6459 37.8381C45.8518 37.4096 46.1383 37.0758 46.5052 36.8366C46.8746 36.5952 47.3054 36.4744 47.7979 36.4744C48.0819 36.4744 48.3625 36.5218 48.6395 36.6165C48.9165 36.7112 49.1686 36.8651 49.3959 37.0781C49.6231 37.2888 49.8042 37.5682 49.9392 37.9162C50.0741 38.2642 50.1416 38.6927 50.1416 39.2017V39.5568H45.9371V38.8324H49.2893C49.2893 38.5246 49.2278 38.25 49.1047 38.0085C48.9839 37.767 48.8111 37.5765 48.5862 37.4368C48.3637 37.2971 48.1009 37.2273 47.7979 37.2273C47.464 37.2273 47.1752 37.3101 46.9314 37.4759C46.6899 37.6392 46.5041 37.8523 46.3738 38.1151C46.2436 38.3778 46.1785 38.6596 46.1785 38.9602V39.4432C46.1785 39.8551 46.2496 40.2043 46.3916 40.4908C46.536 40.7749 46.7361 40.9915 46.9917 41.1406C47.2474 41.2874 47.5445 41.3608 47.8831 41.3608C48.1032 41.3608 48.3021 41.33 48.4797 41.2685C48.6596 41.2045 48.8147 41.1098 48.9449 40.9844C49.0751 40.8565 49.1757 40.6979 49.2467 40.5085L50.0564 40.7358C49.9711 41.0104 49.8279 41.2519 49.6267 41.4602C49.4255 41.6662 49.1769 41.8272 48.8809 41.9432C48.585 42.0568 48.2524 42.1136 47.8831 42.1136ZM52.2545 34.7273V42H51.4165V34.7273H52.2545ZM53.7895 42V36.5455H54.6276V42H53.7895ZM54.2156 35.6364C54.0523 35.6364 53.9114 35.5807 53.7931 35.4695C53.6771 35.3582 53.6191 35.2244 53.6191 35.0682C53.6191 34.9119 53.6771 34.7782 53.7931 34.6669C53.9114 34.5556 54.0523 34.5 54.2156 34.5C54.379 34.5 54.5187 34.5556 54.6347 34.6669C54.753 34.7782 54.8122 34.9119 54.8122 35.0682C54.8122 35.2244 54.753 35.3582 54.6347 35.4695C54.5187 35.5807 54.379 35.6364 54.2156 35.6364ZM58.4495 42.1136C57.9239 42.1136 57.4706 41.9976 57.0894 41.7656C56.7106 41.5312 56.4182 41.2045 56.2123 40.7855C56.0087 40.3641 55.9069 39.8741 55.9069 39.3153C55.9069 38.7566 56.0087 38.2642 56.2123 37.8381C56.4182 37.4096 56.7047 37.0758 57.0716 36.8366C57.441 36.5952 57.8718 36.4744 58.3643 36.4744C58.6483 36.4744 58.9289 36.5218 59.2059 36.6165C59.4829 36.7112 59.735 36.8651 59.9623 37.0781C60.1895 37.2888 60.3707 37.5682 60.5056 37.9162C60.6405 38.2642 60.708 38.6927 60.708 39.2017V39.5568H56.5035V38.8324H59.8557C59.8557 38.5246 59.7942 38.25 59.6711 38.0085C59.5503 37.767 59.3775 37.5765 59.1526 37.4368C58.9301 37.2971 58.6673 37.2273 58.3643 37.2273C58.0305 37.2273 57.7416 37.3101 57.4978 37.4759C57.2563 37.6392 57.0705 37.8523 56.9403 38.1151C56.81 38.3778 56.7449 38.6596 56.7449 38.9602V39.4432C56.7449 39.8551 56.816 40.2043 56.958 40.4908C57.1024 40.7749 57.3025 40.9915 57.5581 41.1406C57.8138 41.2874 58.1109 41.3608 58.4495 41.3608C58.6697 41.3608 58.8685 41.33 59.0461 41.2685C59.226 41.2045 59.3811 41.1098 59.5113 40.9844C59.6415 40.8565 59.7421 40.6979 59.8131 40.5085L60.6228 40.7358C60.5376 41.0104 60.3943 41.2519 60.1931 41.4602C59.9919 41.6662 59.7433 41.8272 59.4474 41.9432C59.1514 42.0568 58.8188 42.1136 58.4495 42.1136ZM65.8465 37.767L65.0937 37.9801C65.0463 37.8546 64.9765 37.7327 64.8841 37.6143C64.7942 37.4936 64.6711 37.3942 64.5148 37.3161C64.3586 37.2379 64.1585 37.1989 63.9147 37.1989C63.5809 37.1989 63.3027 37.2758 63.0802 37.4297C62.86 37.5812 62.7499 37.7741 62.7499 38.0085C62.7499 38.2169 62.8257 38.3814 62.9772 38.5021C63.1287 38.6229 63.3654 38.7235 63.6874 38.804L64.4971 39.0028C64.9848 39.1212 65.3482 39.3023 65.5873 39.5462C65.8264 39.7876 65.9459 40.099 65.9459 40.4801C65.9459 40.7926 65.856 41.072 65.676 41.3182C65.4985 41.5644 65.2499 41.7585 64.9303 41.9006C64.6107 42.0426 64.239 42.1136 63.8153 42.1136C63.2589 42.1136 62.7984 41.9929 62.4339 41.7514C62.0693 41.5099 61.8385 41.1572 61.7414 40.6932L62.5368 40.4943C62.6126 40.7879 62.7558 41.008 62.9665 41.1548C63.1796 41.3016 63.4578 41.375 63.801 41.375C64.1917 41.375 64.5018 41.2921 64.7314 41.1264C64.9635 40.9583 65.0795 40.7571 65.0795 40.5227C65.0795 40.3333 65.0132 40.1747 64.8806 40.0469C64.748 39.9167 64.5444 39.8196 64.2698 39.7557L63.3607 39.5426C62.8612 39.4242 62.4942 39.2408 62.2599 38.9922C62.0278 38.7412 61.9118 38.4276 61.9118 38.0511C61.9118 37.7434 61.9983 37.4711 62.1711 37.2344C62.3463 36.9976 62.5842 36.8118 62.8849 36.6768C63.1879 36.5419 63.5312 36.4744 63.9147 36.4744C64.4545 36.4744 64.8782 36.5928 65.186 36.8295C65.4961 37.0663 65.7163 37.3788 65.8465 37.767ZM72.2359 42.1136C71.7435 42.1136 71.3114 41.9964 70.9397 41.7621C70.5704 41.5277 70.2816 41.1998 70.0732 40.7784C69.8673 40.357 69.7643 39.8646 69.7643 39.3011C69.7643 38.733 69.8673 38.237 70.0732 37.8132C70.2816 37.3894 70.5704 37.0604 70.9397 36.826C71.3114 36.5916 71.7435 36.4744 72.2359 36.4744C72.7283 36.4744 73.1592 36.5916 73.5285 36.826C73.9002 37.0604 74.189 37.3894 74.395 37.8132C74.6033 38.237 74.7075 38.733 74.7075 39.3011C74.7075 39.8646 74.6033 40.357 74.395 40.7784C74.189 41.1998 73.9002 41.5277 73.5285 41.7621C73.1592 41.9964 72.7283 42.1136 72.2359 42.1136ZM72.2359 41.3608C72.6099 41.3608 72.9177 41.2649 73.1592 41.0732C73.4007 40.8814 73.5794 40.6293 73.6954 40.3168C73.8114 40.0043 73.8694 39.6657 73.8694 39.3011C73.8694 38.9366 73.8114 38.5968 73.6954 38.282C73.5794 37.9671 73.4007 37.7126 73.1592 37.5185C72.9177 37.3243 72.6099 37.2273 72.2359 37.2273C71.8618 37.2273 71.5541 37.3243 71.3126 37.5185C71.0711 37.7126 70.8924 37.9671 70.7764 38.282C70.6604 38.5968 70.6024 38.9366 70.6024 39.3011C70.6024 39.6657 70.6604 40.0043 70.7764 40.3168C70.8924 40.6293 71.0711 40.8814 71.3126 41.0732C71.5541 41.2649 71.8618 41.3608 72.2359 41.3608ZM76.8248 38.7188V42H75.9868V36.5455H76.7964V37.3977H76.8675C76.9953 37.1207 77.1894 36.8982 77.4498 36.7301C77.7103 36.5597 78.0464 36.4744 78.4584 36.4744C78.8277 36.4744 79.1508 36.5502 79.4278 36.7017C79.7048 36.8509 79.9202 37.0781 80.0741 37.3835C80.228 37.6866 80.305 38.0701 80.305 38.5341V42H79.4669V38.5909C79.4669 38.1624 79.3556 37.8286 79.1331 37.5895C78.9105 37.348 78.6051 37.2273 78.2169 37.2273C77.9494 37.2273 77.7103 37.2853 77.4996 37.4013C77.2912 37.5173 77.1267 37.6866 77.0059 37.9091C76.8852 38.1316 76.8248 38.4015 76.8248 38.7188ZM86.0835 42L84.0949 34.7273H84.9898L86.5097 40.6506H86.5807L88.129 34.7273H89.1233L90.6716 40.6506H90.7426L92.2625 34.7273H93.1574L91.1688 42H90.2597L88.6546 36.2045H88.5977L86.9926 42H86.0835ZM94.1411 42V36.5455H94.9791V42H94.1411ZM94.5672 35.6364C94.4039 35.6364 94.263 35.5807 94.1446 35.4695C94.0286 35.3582 93.9706 35.2244 93.9706 35.0682C93.9706 34.9119 94.0286 34.7782 94.1446 34.6669C94.263 34.5556 94.4039 34.5 94.5672 34.5C94.7306 34.5 94.8702 34.5556 94.9862 34.6669C95.1046 34.7782 95.1638 34.9119 95.1638 35.0682C95.1638 35.2244 95.1046 35.3582 94.9862 35.4695C94.8702 35.5807 94.7306 35.6364 94.5672 35.6364ZM96.6278 42V34.7273H100.989V35.5085H97.5084V37.9659H100.662V38.7472H97.5084V42H96.6278ZM102.383 42V36.5455H103.221V42H102.383ZM102.809 35.6364C102.646 35.6364 102.505 35.5807 102.387 35.4695C102.271 35.3582 102.213 35.2244 102.213 35.0682C102.213 34.9119 102.271 34.7782 102.387 34.6669C102.505 34.5556 102.646 34.5 102.809 34.5C102.973 34.5 103.112 34.5556 103.228 34.6669C103.347 34.7782 103.406 34.9119 103.406 35.0682C103.406 35.2244 103.347 35.3582 103.228 35.4695C103.112 35.5807 102.973 35.6364 102.809 35.6364ZM106.006 41.0057L105.949 41.3892C105.909 41.6591 105.848 41.9479 105.765 42.2557C105.684 42.5634 105.6 42.8535 105.513 43.1257C105.425 43.398 105.353 43.6146 105.296 43.7756H104.657C104.688 43.6241 104.728 43.424 104.778 43.1754C104.827 42.9268 104.877 42.6487 104.927 42.3409C104.979 42.0355 105.021 41.723 105.055 41.4034L105.097 41.0057H106.006ZM111.21 34.7273V42H110.372V34.7273H111.21ZM112.745 42V36.5455H113.583V42H112.745ZM113.171 35.6364C113.007 35.6364 112.867 35.5807 112.748 35.4695C112.632 35.3582 112.574 35.2244 112.574 35.0682C112.574 34.9119 112.632 34.7782 112.748 34.6669C112.867 34.5556 113.007 34.5 113.171 34.5C113.334 34.5 113.474 34.5556 113.59 34.6669C113.708 34.7782 113.767 34.9119 113.767 35.0682C113.767 35.2244 113.708 35.3582 113.59 35.4695C113.474 35.5807 113.334 35.6364 113.171 35.6364ZM117.49 36.5455V37.2557H114.663V36.5455H117.49ZM115.487 35.2386H116.325V40.4375C116.325 40.6742 116.359 40.8518 116.428 40.9702C116.499 41.0862 116.589 41.1643 116.698 41.2045C116.809 41.2424 116.926 41.2614 117.049 41.2614C117.142 41.2614 117.218 41.2566 117.277 41.2472C117.336 41.2353 117.383 41.2259 117.419 41.2188L117.589 41.9716C117.532 41.9929 117.453 42.0142 117.351 42.0355C117.249 42.0592 117.12 42.071 116.964 42.071C116.727 42.071 116.495 42.0201 116.268 41.9183C116.043 41.8165 115.856 41.6615 115.707 41.4531C115.56 41.2448 115.487 40.982 115.487 40.6648V35.2386ZM121.123 36.5455V37.2557H118.296V36.5455H121.123ZM119.12 35.2386H119.958V40.4375C119.958 40.6742 119.992 40.8518 120.061 40.9702C120.132 41.0862 120.222 41.1643 120.331 41.2045C120.442 41.2424 120.559 41.2614 120.682 41.2614C120.775 41.2614 120.85 41.2566 120.91 41.2472C120.969 41.2353 121.016 41.2259 121.052 41.2188L121.222 41.9716C121.165 41.9929 121.086 42.0142 120.984 42.0355C120.882 42.0592 120.753 42.071 120.597 42.071C120.36 42.071 120.128 42.0201 119.901 41.9183C119.676 41.8165 119.489 41.6615 119.34 41.4531C119.193 41.2448 119.12 40.982 119.12 40.6648V35.2386ZM123.339 34.7273V42H122.5V34.7273H123.339ZM127.16 42.1136C126.635 42.1136 126.181 41.9976 125.8 41.7656C125.422 41.5312 125.129 41.2045 124.923 40.7855C124.72 40.3641 124.618 39.8741 124.618 39.3153C124.618 38.7566 124.72 38.2642 124.923 37.8381C125.129 37.4096 125.416 37.0758 125.783 36.8366C126.152 36.5952 126.583 36.4744 127.075 36.4744C127.359 36.4744 127.64 36.5218 127.917 36.6165C128.194 36.7112 128.446 36.8651 128.673 37.0781C128.9 37.2888 129.082 37.5682 129.217 37.9162C129.351 38.2642 129.419 38.6927 129.419 39.2017V39.5568H125.214V38.8324H128.567C128.567 38.5246 128.505 38.25 128.382 38.0085C128.261 37.767 128.088 37.5765 127.864 37.4368C127.641 37.2971 127.378 37.2273 127.075 37.2273C126.741 37.2273 126.453 37.3101 126.209 37.4759C125.967 37.6392 125.781 37.8523 125.651 38.1151C125.521 38.3778 125.456 38.6596 125.456 38.9602V39.4432C125.456 39.8551 125.527 40.2043 125.669 40.4908C125.813 40.7749 126.013 40.9915 126.269 41.1406C126.525 41.2874 126.822 41.3608 127.16 41.3608C127.381 41.3608 127.579 41.33 127.757 41.2685C127.937 41.2045 128.092 41.1098 128.222 40.9844C128.352 40.8565 128.453 40.6979 128.524 40.5085L129.334 40.7358C129.248 41.0104 129.105 41.2519 128.904 41.4602C128.703 41.6662 128.454 41.8272 128.158 41.9432C127.862 42.0568 127.53 42.1136 127.16 42.1136ZM135.878 36.5455V37.2557H133.052V36.5455H135.878ZM133.876 35.2386H134.714V40.4375C134.714 40.6742 134.748 40.8518 134.817 40.9702C134.888 41.0862 134.978 41.1643 135.087 41.2045C135.198 41.2424 135.315 41.2614 135.438 41.2614C135.53 41.2614 135.606 41.2566 135.665 41.2472C135.725 41.2353 135.772 41.2259 135.807 41.2188L135.978 41.9716C135.921 41.9929 135.842 42.0142 135.74 42.0355C135.638 42.0592 135.509 42.071 135.353 42.071C135.116 42.071 134.884 42.0201 134.657 41.9183C134.432 41.8165 134.245 41.6615 134.096 41.4531C133.949 41.2448 133.876 40.982 133.876 40.6648V35.2386ZM139.296 42.1136C138.804 42.1136 138.372 41.9964 138 41.7621C137.631 41.5277 137.342 41.1998 137.134 40.7784C136.928 40.357 136.825 39.8646 136.825 39.3011C136.825 38.733 136.928 38.237 137.134 37.8132C137.342 37.3894 137.631 37.0604 138 36.826C138.372 36.5916 138.804 36.4744 139.296 36.4744C139.789 36.4744 140.22 36.5916 140.589 36.826C140.961 37.0604 141.25 37.3894 141.456 37.8132C141.664 38.237 141.768 38.733 141.768 39.3011C141.768 39.8646 141.664 40.357 141.456 40.7784C141.25 41.1998 140.961 41.5277 140.589 41.7621C140.22 41.9964 139.789 42.1136 139.296 42.1136ZM139.296 41.3608C139.67 41.3608 139.978 41.2649 140.22 41.0732C140.461 40.8814 140.64 40.6293 140.756 40.3168C140.872 40.0043 140.93 39.6657 140.93 39.3011C140.93 38.9366 140.872 38.5968 140.756 38.282C140.64 37.9671 140.461 37.7126 140.22 37.5185C139.978 37.3243 139.67 37.2273 139.296 37.2273C138.922 37.2273 138.615 37.3243 138.373 37.5185C138.132 37.7126 137.953 37.9671 137.837 38.282C137.721 38.5968 137.663 38.9366 137.663 39.3011C137.663 39.6657 137.721 40.0043 137.837 40.3168C137.953 40.6293 138.132 40.8814 138.373 41.0732C138.615 41.2649 138.922 41.3608 139.296 41.3608ZM146.698 38.7188V42H145.86V36.5455H146.669V37.3977H146.741C146.868 37.1207 147.062 36.8982 147.323 36.7301C147.583 36.5597 147.919 36.4744 148.331 36.4744C148.701 36.4744 149.024 36.5502 149.301 36.7017C149.578 36.8509 149.793 37.0781 149.947 37.3835C150.101 37.6866 150.178 38.0701 150.178 38.5341V42H149.34V38.5909C149.34 38.1624 149.229 37.8286 149.006 37.5895C148.784 37.348 148.478 37.2273 148.09 37.2273C147.822 37.2273 147.583 37.2853 147.373 37.4013C147.164 37.5173 147 37.6866 146.879 37.9091C146.758 38.1316 146.698 38.4015 146.698 38.7188ZM153.925 42.1136C153.433 42.1136 153.001 41.9964 152.629 41.7621C152.26 41.5277 151.971 41.1998 151.763 40.7784C151.557 40.357 151.454 39.8646 151.454 39.3011C151.454 38.733 151.557 38.237 151.763 37.8132C151.971 37.3894 152.26 37.0604 152.629 36.826C153.001 36.5916 153.433 36.4744 153.925 36.4744C154.418 36.4744 154.849 36.5916 155.218 36.826C155.59 37.0604 155.878 37.3894 156.084 37.8132C156.293 38.237 156.397 38.733 156.397 39.3011C156.397 39.8646 156.293 40.357 156.084 40.7784C155.878 41.1998 155.59 41.5277 155.218 41.7621C154.849 41.9964 154.418 42.1136 153.925 42.1136ZM153.925 41.3608C154.299 41.3608 154.607 41.2649 154.849 41.0732C155.09 40.8814 155.269 40.6293 155.385 40.3168C155.501 40.0043 155.559 39.6657 155.559 39.3011C155.559 38.9366 155.501 38.5968 155.385 38.282C155.269 37.9671 155.09 37.7126 154.849 37.5185C154.607 37.3243 154.299 37.2273 153.925 37.2273C153.551 37.2273 153.244 37.3243 153.002 37.5185C152.761 37.7126 152.582 37.9671 152.466 38.282C152.35 38.5968 152.292 38.9366 152.292 39.3011C152.292 39.6657 152.35 40.0043 152.466 40.3168C152.582 40.6293 152.761 40.8814 153.002 41.0732C153.244 41.2649 153.551 41.3608 153.925 41.3608ZM162.776 42.1136C162.25 42.1136 161.797 41.9976 161.416 41.7656C161.037 41.5312 160.744 41.2045 160.538 40.7855C160.335 40.3641 160.233 39.8741 160.233 39.3153C160.233 38.7566 160.335 38.2642 160.538 37.8381C160.744 37.4096 161.031 37.0758 161.398 36.8366C161.767 36.5952 162.198 36.4744 162.69 36.4744C162.975 36.4744 163.255 36.5218 163.532 36.6165C163.809 36.7112 164.061 36.8651 164.288 37.0781C164.516 37.2888 164.697 37.5682 164.832 37.9162C164.967 38.2642 165.034 38.6927 165.034 39.2017V39.5568H160.83V38.8324H164.182C164.182 38.5246 164.12 38.25 163.997 38.0085C163.877 37.767 163.704 37.5765 163.479 37.4368C163.256 37.2971 162.993 37.2273 162.69 37.2273C162.357 37.2273 162.068 37.3101 161.824 37.4759C161.582 37.6392 161.397 37.8523 161.266 38.1151C161.136 38.3778 161.071 38.6596 161.071 38.9602V39.4432C161.071 39.8551 161.142 40.2043 161.284 40.4908C161.429 40.7749 161.629 40.9915 161.884 41.1406C162.14 41.2874 162.437 41.3608 162.776 41.3608C162.996 41.3608 163.195 41.33 163.372 41.2685C163.552 41.2045 163.707 41.1098 163.837 40.9844C163.968 40.8565 164.068 40.6979 164.139 40.5085L164.949 40.7358C164.864 41.0104 164.72 41.2519 164.519 41.4602C164.318 41.6662 164.069 41.8272 163.774 41.9432C163.478 42.0568 163.145 42.1136 162.776 42.1136ZM167.147 34.7273V42H166.309V34.7273H167.147ZM170.969 42.1136C170.443 42.1136 169.99 41.9976 169.609 41.7656C169.23 41.5312 168.938 41.2045 168.732 40.7855C168.528 40.3641 168.426 39.8741 168.426 39.3153C168.426 38.7566 168.528 38.2642 168.732 37.8381C168.938 37.4096 169.224 37.0758 169.591 36.8366C169.96 36.5952 170.391 36.4744 170.884 36.4744C171.168 36.4744 171.448 36.5218 171.725 36.6165C172.002 36.7112 172.255 36.8651 172.482 37.0781C172.709 37.2888 172.89 37.5682 173.025 37.9162C173.16 38.2642 173.228 38.6927 173.228 39.2017V39.5568H169.023V38.8324H172.375C172.375 38.5246 172.314 38.25 172.191 38.0085C172.07 37.767 171.897 37.5765 171.672 37.4368C171.45 37.2971 171.187 37.2273 170.884 37.2273C170.55 37.2273 170.261 37.3101 170.017 37.4759C169.776 37.6392 169.59 37.8523 169.46 38.1151C169.33 38.3778 169.264 38.6596 169.264 38.9602V39.4432C169.264 39.8551 169.335 40.2043 169.478 40.4908C169.622 40.7749 169.822 40.9915 170.078 41.1406C170.333 41.2874 170.63 41.3608 170.969 41.3608C171.189 41.3608 171.388 41.33 171.566 41.2685C171.746 41.2045 171.901 41.1098 172.031 40.9844C172.161 40.8565 172.262 40.6979 172.333 40.5085L173.142 40.7358C173.057 41.0104 172.914 41.2519 172.713 41.4602C172.511 41.6662 172.263 41.8272 171.967 41.9432C171.671 42.0568 171.338 42.1136 170.969 42.1136ZM176.718 42.1136C176.207 42.1136 175.767 41.9929 175.397 41.7514C175.028 41.5099 174.744 41.1773 174.545 40.7536C174.346 40.3298 174.247 39.8456 174.247 39.3011C174.247 38.7472 174.349 38.2583 174.552 37.8345C174.758 37.4084 175.045 37.0758 175.411 36.8366C175.781 36.5952 176.212 36.4744 176.704 36.4744C177.088 36.4744 177.433 36.5455 177.741 36.6875C178.049 36.8295 178.301 37.0284 178.497 37.2841C178.694 37.5398 178.816 37.8381 178.863 38.179H178.025C177.961 37.9304 177.819 37.7102 177.599 37.5185C177.381 37.3243 177.088 37.2273 176.718 37.2273C176.392 37.2273 176.105 37.3125 175.859 37.483C175.615 37.651 175.425 37.889 175.287 38.1967C175.152 38.5021 175.085 38.8608 175.085 39.2727C175.085 39.6941 175.151 40.0611 175.284 40.3736C175.419 40.6861 175.608 40.9287 175.852 41.1016C176.098 41.2744 176.387 41.3608 176.718 41.3608C176.936 41.3608 177.134 41.3229 177.311 41.2472C177.489 41.1714 177.639 41.0625 177.762 40.9205C177.885 40.7784 177.973 40.608 178.025 40.4091H178.863C178.816 40.7311 178.699 41.0211 178.512 41.2791C178.327 41.5348 178.082 41.7384 177.777 41.8899C177.474 42.0391 177.121 42.1136 176.718 42.1136ZM182.46 36.5455V37.2557H179.634V36.5455H182.46ZM180.458 35.2386H181.296V40.4375C181.296 40.6742 181.33 40.8518 181.399 40.9702C181.47 41.0862 181.56 41.1643 181.669 41.2045C181.78 41.2424 181.897 41.2614 182.02 41.2614C182.112 41.2614 182.188 41.2566 182.247 41.2472C182.307 41.2353 182.354 41.2259 182.389 41.2188L182.56 41.9716C182.503 41.9929 182.424 42.0142 182.322 42.0355C182.22 42.0592 182.091 42.071 181.935 42.071C181.698 42.071 181.466 42.0201 181.239 41.9183C181.014 41.8165 180.827 41.6615 180.678 41.4531C180.531 41.2448 180.458 40.982 180.458 40.6648V35.2386ZM183.721 42V36.5455H184.531V37.3693H184.588C184.687 37.0994 184.867 36.8804 185.127 36.7124C185.388 36.5443 185.681 36.4602 186.008 36.4602C186.07 36.4602 186.147 36.4614 186.239 36.4638C186.331 36.4661 186.401 36.4697 186.448 36.4744V37.3267C186.42 37.3196 186.355 37.3089 186.253 37.2947C186.154 37.2782 186.048 37.2699 185.937 37.2699C185.672 37.2699 185.435 37.3255 185.227 37.4368C185.021 37.5457 184.858 37.6972 184.737 37.8913C184.618 38.0831 184.559 38.3021 184.559 38.5483V42H183.721ZM189.492 42.1136C188.999 42.1136 188.567 41.9964 188.196 41.7621C187.826 41.5277 187.537 41.1998 187.329 40.7784C187.123 40.357 187.02 39.8646 187.02 39.3011C187.02 38.733 187.123 38.237 187.329 37.8132C187.537 37.3894 187.826 37.0604 188.196 36.826C188.567 36.5916 188.999 36.4744 189.492 36.4744C189.984 36.4744 190.415 36.5916 190.784 36.826C191.156 37.0604 191.445 37.3894 191.651 37.8132C191.859 38.237 191.963 38.733 191.963 39.3011C191.963 39.8646 191.859 40.357 191.651 40.7784C191.445 41.1998 191.156 41.5277 190.784 41.7621C190.415 41.9964 189.984 42.1136 189.492 42.1136ZM189.492 41.3608C189.866 41.3608 190.174 41.2649 190.415 41.0732C190.657 40.8814 190.835 40.6293 190.951 40.3168C191.067 40.0043 191.125 39.6657 191.125 39.3011C191.125 38.9366 191.067 38.5968 190.951 38.282C190.835 37.9671 190.657 37.7126 190.415 37.5185C190.174 37.3243 189.866 37.2273 189.492 37.2273C189.118 37.2273 188.81 37.3243 188.568 37.5185C188.327 37.7126 188.148 37.9671 188.032 38.282C187.916 38.5968 187.858 38.9366 187.858 39.3011C187.858 39.6657 187.916 40.0043 188.032 40.3168C188.148 40.6293 188.327 40.8814 188.568 41.0732C188.81 41.2649 189.118 41.3608 189.492 41.3608ZM194.081 38.7188V42H193.243V36.5455H194.052V37.3977H194.123C194.251 37.1207 194.445 36.8982 194.706 36.7301C194.966 36.5597 195.302 36.4744 195.714 36.4744C196.084 36.4744 196.407 36.5502 196.684 36.7017C196.961 36.8509 197.176 37.0781 197.33 37.3835C197.484 37.6866 197.561 38.0701 197.561 38.5341V42H196.723V38.5909C196.723 38.1624 196.611 37.8286 196.389 37.5895C196.166 37.348 195.861 37.2273 195.473 37.2273C195.205 37.2273 194.966 37.2853 194.755 37.4013C194.547 37.5173 194.383 37.6866 194.262 37.9091C194.141 38.1316 194.081 38.4015 194.081 38.7188ZM199.092 42V36.5455H199.93V42H199.092ZM199.518 35.6364C199.355 35.6364 199.214 35.5807 199.096 35.4695C198.98 35.3582 198.922 35.2244 198.922 35.0682C198.922 34.9119 198.98 34.7782 199.096 34.6669C199.214 34.5556 199.355 34.5 199.518 34.5C199.682 34.5 199.821 34.5556 199.937 34.6669C200.056 34.7782 200.115 34.9119 200.115 35.0682C200.115 35.2244 200.056 35.3582 199.937 35.4695C199.821 35.5807 199.682 35.6364 199.518 35.6364ZM203.681 42.1136C203.17 42.1136 202.729 41.9929 202.36 41.7514C201.991 41.5099 201.707 41.1773 201.508 40.7536C201.309 40.3298 201.21 39.8456 201.21 39.3011C201.21 38.7472 201.311 38.2583 201.515 37.8345C201.721 37.4084 202.007 37.0758 202.374 36.8366C202.744 36.5952 203.175 36.4744 203.667 36.4744C204.051 36.4744 204.396 36.5455 204.704 36.6875C205.012 36.8295 205.264 37.0284 205.46 37.2841C205.657 37.5398 205.779 37.8381 205.826 38.179H204.988C204.924 37.9304 204.782 37.7102 204.562 37.5185C204.344 37.3243 204.051 37.2273 203.681 37.2273C203.354 37.2273 203.068 37.3125 202.822 37.483C202.578 37.651 202.387 37.889 202.25 38.1967C202.115 38.5021 202.048 38.8608 202.048 39.2727C202.048 39.6941 202.114 40.0611 202.247 40.3736C202.381 40.6861 202.571 40.9287 202.815 41.1016C203.061 41.2744 203.35 41.3608 203.681 41.3608C203.899 41.3608 204.097 41.3229 204.274 41.2472C204.452 41.1714 204.602 41.0625 204.725 40.9205C204.848 40.7784 204.936 40.608 204.988 40.4091H205.826C205.779 40.7311 205.662 41.0211 205.475 41.2791C205.29 41.5348 205.045 41.7384 204.739 41.8899C204.436 42.0391 204.084 42.1136 203.681 42.1136ZM210.915 37.767L210.162 37.9801C210.115 37.8546 210.045 37.7327 209.953 37.6143C209.863 37.4936 209.739 37.3942 209.583 37.3161C209.427 37.2379 209.227 37.1989 208.983 37.1989C208.649 37.1989 208.371 37.2758 208.149 37.4297C207.928 37.5812 207.818 37.7741 207.818 38.0085C207.818 38.2169 207.894 38.3814 208.046 38.5021C208.197 38.6229 208.434 38.7235 208.756 38.804L209.565 39.0028C210.053 39.1212 210.417 39.3023 210.656 39.5462C210.895 39.7876 211.014 40.099 211.014 40.4801C211.014 40.7926 210.924 41.072 210.744 41.3182C210.567 41.5644 210.318 41.7585 209.999 41.9006C209.679 42.0426 209.307 42.1136 208.884 42.1136C208.327 42.1136 207.867 41.9929 207.502 41.7514C207.138 41.5099 206.907 41.1572 206.81 40.6932L207.605 40.4943C207.681 40.7879 207.824 41.008 208.035 41.1548C208.248 41.3016 208.526 41.375 208.869 41.375C209.26 41.375 209.57 41.2921 209.8 41.1264C210.032 40.9583 210.148 40.7571 210.148 40.5227C210.148 40.3333 210.082 40.1747 209.949 40.0469C209.816 39.9167 209.613 39.8196 209.338 39.7557L208.429 39.5426C207.93 39.4242 207.563 39.2408 207.328 38.9922C207.096 38.7412 206.98 38.4276 206.98 38.0511C206.98 37.7434 207.067 37.4711 207.239 37.2344C207.415 36.9976 207.653 36.8118 207.953 36.6768C208.256 36.5419 208.6 36.4744 208.983 36.4744C209.523 36.4744 209.947 36.5928 210.254 36.8295C210.564 37.0663 210.785 37.3788 210.915 37.767Z" fill="#EEF0F2"/>
<path d="M12.1942 7.27273H13.2511V13.0511C13.2511 13.6477 13.1104 14.1804 12.8292 14.6491C12.5508 15.1151 12.1573 15.483 11.6488 15.7528C11.1403 16.0199 10.5437 16.1534 9.85902 16.1534C9.17436 16.1534 8.57777 16.0199 8.06925 15.7528C7.56072 15.483 7.16584 15.1151 6.88459 14.6491C6.60618 14.1804 6.46697 13.6477 6.46697 13.0511V7.27273H7.52379V12.9659C7.52379 13.392 7.61754 13.7713 7.80504 14.1037C7.99254 14.4332 8.25959 14.6932 8.60618 14.8835C8.95561 15.071 9.37322 15.1648 9.85902 15.1648C10.3448 15.1648 10.7624 15.071 11.1119 14.8835C11.4613 14.6932 11.7283 14.4332 11.913 14.1037C12.1005 13.7713 12.1942 13.392 12.1942 12.9659V7.27273ZM15.2251 18.4545V9.45455H16.1967V10.4943H16.3161C16.3899 10.3807 16.4922 10.2358 16.6229 10.0597C16.7564 9.88068 16.9467 9.72159 17.1939 9.58239C17.4439 9.44034 17.782 9.36932 18.2081 9.36932C18.7592 9.36932 19.245 9.5071 19.6655 9.78267C20.0859 10.0582 20.4141 10.4489 20.6499 10.9545C20.8857 11.4602 21.0036 12.0568 21.0036 12.7443C21.0036 13.4375 20.8857 14.0384 20.6499 14.5469C20.4141 15.0526 20.0874 15.4446 19.6697 15.723C19.2521 15.9986 18.7706 16.1364 18.2251 16.1364C17.8047 16.1364 17.468 16.0668 17.2152 15.9276C16.9624 15.7855 16.7678 15.625 16.6314 15.446C16.495 15.2642 16.3899 15.1136 16.3161 14.9943H16.2308V18.4545H15.2251ZM16.2138 12.7273C16.2138 13.2216 16.2862 13.6577 16.4311 14.0355C16.576 14.4105 16.7876 14.7045 17.0661 14.9176C17.3445 15.1278 17.6854 15.233 18.0888 15.233C18.5092 15.233 18.8601 15.1222 19.1413 14.9006C19.4254 14.6761 19.6385 14.375 19.7805 13.9972C19.9254 13.6165 19.9979 13.1932 19.9979 12.7273C19.9979 12.267 19.9268 11.8523 19.7848 11.483C19.6456 11.1108 19.4339 10.8168 19.1499 10.6009C18.8686 10.3821 18.5149 10.2727 18.0888 10.2727C17.6797 10.2727 17.3359 10.3764 17.0575 10.5838C16.7791 10.7884 16.5689 11.0753 16.4268 11.4446C16.2848 11.8111 16.2138 12.2386 16.2138 12.7273ZM27.174 10.9205L26.2706 11.1761C26.2138 11.0256 26.13 10.8793 26.0192 10.7372C25.9112 10.5923 25.7635 10.473 25.576 10.3793C25.3885 10.2855 25.1484 10.2386 24.8558 10.2386C24.4553 10.2386 24.1214 10.331 23.8544 10.5156C23.5902 10.6974 23.4581 10.929 23.4581 11.2102C23.4581 11.4602 23.549 11.6577 23.7308 11.8026C23.9126 11.9474 24.1967 12.0682 24.5831 12.1648L25.5547 12.4034C26.1399 12.5455 26.576 12.7628 26.8629 13.0554C27.1499 13.3452 27.2933 13.7187 27.2933 14.1761C27.2933 14.5511 27.1854 14.8864 26.9695 15.1818C26.7564 15.4773 26.4581 15.7102 26.0746 15.8807C25.6911 16.0511 25.245 16.1364 24.7365 16.1364C24.0689 16.1364 23.5163 15.9915 23.0788 15.7017C22.6413 15.4119 22.3643 14.9886 22.2479 14.4318L23.2024 14.1932C23.2933 14.5455 23.4652 14.8097 23.718 14.9858C23.9737 15.1619 24.3075 15.25 24.7195 15.25C25.1882 15.25 25.5604 15.1506 25.8359 14.9517C26.1143 14.75 26.2536 14.5085 26.2536 14.2273C26.2536 14 26.174 13.8097 26.0149 13.6562C25.8558 13.5 25.6115 13.3835 25.282 13.3068L24.1911 13.0511C23.5916 12.9091 23.1513 12.6889 22.87 12.3906C22.5916 12.0895 22.4524 11.7131 22.4524 11.2614C22.4524 10.892 22.5561 10.5653 22.7635 10.2812C22.9737 9.99716 23.2592 9.77415 23.62 9.61222C23.9837 9.45028 24.3956 9.36932 24.8558 9.36932C25.5036 9.36932 26.0121 9.51136 26.3814 9.79545C26.7536 10.0795 27.0178 10.4545 27.174 10.9205ZM31.6538 9.45455V10.3068H28.2617V9.45455H31.6538ZM29.2504 7.88636H30.256V14.125C30.256 14.4091 30.2972 14.6222 30.3796 14.7642C30.4648 14.9034 30.5728 14.9972 30.7035 15.0455C30.837 15.0909 30.9776 15.1136 31.1254 15.1136C31.2362 15.1136 31.3271 15.108 31.3981 15.0966C31.4691 15.0824 31.5259 15.071 31.5685 15.0625L31.7731 15.9659C31.7049 15.9915 31.6097 16.017 31.4876 16.0426C31.3654 16.071 31.2106 16.0852 31.0231 16.0852C30.739 16.0852 30.4606 16.0241 30.1879 15.902C29.918 15.7798 29.6935 15.5938 29.5146 15.3438C29.3384 15.0938 29.2504 14.7784 29.2504 14.3977V7.88636ZM35.0927 16.1534C34.6779 16.1534 34.3015 16.0753 33.9634 15.919C33.6254 15.7599 33.3569 15.5312 33.158 15.233C32.9592 14.9318 32.8597 14.5682 32.8597 14.142C32.8597 13.767 32.9336 13.4631 33.0813 13.2301C33.229 12.9943 33.4265 12.8097 33.6737 12.6761C33.9208 12.5426 34.1935 12.4432 34.4918 12.3778C34.793 12.3097 35.0955 12.2557 35.3995 12.2159C35.7972 12.1648 36.1197 12.1264 36.3668 12.1009C36.6168 12.0724 36.7987 12.0256 36.9123 11.9602C37.0288 11.8949 37.087 11.7812 37.087 11.6193V11.5852C37.087 11.1648 36.9719 10.8381 36.7418 10.6051C36.5146 10.3722 36.1694 10.2557 35.7063 10.2557C35.2262 10.2557 34.8498 10.3608 34.5771 10.571C34.3043 10.7812 34.1126 11.0057 34.0018 11.2443L33.0472 10.9034C33.2177 10.5057 33.445 10.196 33.729 9.97443C34.016 9.75 34.3285 9.59375 34.6665 9.50568C35.0075 9.41477 35.3427 9.36932 35.6722 9.36932C35.8825 9.36932 36.1239 9.39489 36.3967 9.44602C36.6722 9.49432 36.9379 9.59517 37.1935 9.74858C37.4521 9.90199 37.6665 10.1335 37.837 10.4432C38.0075 10.7528 38.0927 11.1676 38.0927 11.6875V16H37.087V15.1136H37.0359C36.9677 15.2557 36.854 15.4077 36.695 15.5696C36.5359 15.7315 36.3242 15.8693 36.06 15.983C35.7958 16.0966 35.4734 16.1534 35.0927 16.1534ZM35.2461 15.25C35.6438 15.25 35.979 15.1719 36.2518 15.0156C36.5273 14.8594 36.7347 14.6577 36.8739 14.4105C37.016 14.1634 37.087 13.9034 37.087 13.6307V12.7102C37.0444 12.7614 36.9506 12.8082 36.8058 12.8509C36.6637 12.8906 36.4989 12.9261 36.3114 12.9574C36.1268 12.9858 35.9464 13.0114 35.7702 13.0341C35.5969 13.054 35.4563 13.071 35.3484 13.0852C35.087 13.1193 34.8427 13.1747 34.6154 13.2514C34.391 13.3253 34.2092 13.4375 34.07 13.5881C33.9336 13.7358 33.8654 13.9375 33.8654 14.1932C33.8654 14.5426 33.9947 14.8068 34.2532 14.9858C34.5146 15.1619 34.8455 15.25 35.2461 15.25ZM39.9283 16V9.45455H40.9339V16H39.9283ZM40.4396 8.36364C40.2436 8.36364 40.0746 8.29688 39.9325 8.16335C39.7933 8.02983 39.7237 7.86932 39.7237 7.68182C39.7237 7.49432 39.7933 7.33381 39.9325 7.20028C40.0746 7.06676 40.2436 7 40.4396 7C40.6357 7 40.8033 7.06676 40.9425 7.20028C41.0845 7.33381 41.1555 7.49432 41.1555 7.68182C41.1555 7.86932 41.0845 8.02983 40.9425 8.16335C40.8033 8.29688 40.6357 8.36364 40.4396 8.36364ZM42.7759 16V9.45455H43.7475V10.4432H43.8157C43.935 10.1193 44.1509 9.85653 44.4634 9.65483C44.7759 9.45312 45.1282 9.35227 45.5202 9.35227C45.5941 9.35227 45.6864 9.35369 45.7972 9.35653C45.908 9.35937 45.9918 9.36364 46.0487 9.36932V10.392C46.0146 10.3835 45.9364 10.3707 45.8143 10.3537C45.695 10.3338 45.5685 10.3239 45.435 10.3239C45.1168 10.3239 44.8327 10.3906 44.5827 10.5241C44.3356 10.6548 44.1396 10.8366 43.9947 11.0696C43.8526 11.2997 43.7816 11.5625 43.7816 11.858V16H42.7759ZM51.8771 10.9205L50.9737 11.1761C50.9169 11.0256 50.8331 10.8793 50.7223 10.7372C50.6143 10.5923 50.4666 10.473 50.2791 10.3793C50.0916 10.2855 49.8516 10.2386 49.5589 10.2386C49.1584 10.2386 48.8246 10.331 48.5575 10.5156C48.2933 10.6974 48.1612 10.929 48.1612 11.2102C48.1612 11.4602 48.2521 11.6577 48.4339 11.8026C48.6158 11.9474 48.8999 12.0682 49.2862 12.1648L50.2578 12.4034C50.843 12.5455 51.2791 12.7628 51.5661 13.0554C51.853 13.3452 51.9964 13.7187 51.9964 14.1761C51.9964 14.5511 51.8885 14.8864 51.6726 15.1818C51.4595 15.4773 51.1612 15.7102 50.7777 15.8807C50.3942 16.0511 49.9482 16.1364 49.4396 16.1364C48.772 16.1364 48.2195 15.9915 47.782 15.7017C47.3445 15.4119 47.0675 14.9886 46.951 14.4318L47.9055 14.1932C47.9964 14.5455 48.1683 14.8097 48.4212 14.9858C48.6768 15.1619 49.0107 15.25 49.4226 15.25C49.8913 15.25 50.2635 15.1506 50.5391 14.9517C50.8175 14.75 50.9567 14.5085 50.9567 14.2273C50.9567 14 50.8771 13.8097 50.718 13.6562C50.5589 13.5 50.3146 13.3835 49.9851 13.3068L48.8942 13.0511C48.2947 12.9091 47.8544 12.6889 47.5732 12.3906C47.2947 12.0895 47.1555 11.7131 47.1555 11.2614C47.1555 10.892 47.2592 10.5653 47.4666 10.2812C47.6768 9.99716 47.9624 9.77415 48.3232 9.61222C48.6868 9.45028 49.0987 9.36932 49.5589 9.36932C50.2067 9.36932 50.7152 9.51136 51.0845 9.79545C51.4567 10.0795 51.7209 10.4545 51.8771 10.9205Z" fill="#EEF0F2"/>
<path d="M173.745 207.727V215H172.893L168.93 209.29H168.859V215H167.978V207.727H168.831L172.808 213.452H172.879V207.727H173.745ZM177.681 215.114C177.155 215.114 176.702 214.998 176.321 214.766C175.942 214.531 175.65 214.205 175.444 213.786C175.24 213.364 175.138 212.874 175.138 212.315C175.138 211.757 175.24 211.264 175.444 210.838C175.65 210.41 175.936 210.076 176.303 209.837C176.672 209.595 177.103 209.474 177.596 209.474C177.88 209.474 178.16 209.522 178.437 209.616C178.714 209.711 178.966 209.865 179.194 210.078C179.421 210.289 179.602 210.568 179.737 210.916C179.872 211.264 179.939 211.693 179.939 212.202V212.557H175.735V211.832H179.087C179.087 211.525 179.026 211.25 178.903 211.009C178.782 210.767 178.609 210.576 178.384 210.437C178.162 210.297 177.899 210.227 177.596 210.227C177.262 210.227 176.973 210.31 176.729 210.476C176.488 210.639 176.302 210.852 176.172 211.115C176.041 211.378 175.976 211.66 175.976 211.96V212.443C175.976 212.855 176.047 213.204 176.189 213.491C176.334 213.775 176.534 213.991 176.79 214.141C177.045 214.287 177.342 214.361 177.681 214.361C177.901 214.361 178.1 214.33 178.278 214.268C178.457 214.205 178.613 214.11 178.743 213.984C178.873 213.857 178.974 213.698 179.045 213.509L179.854 213.736C179.769 214.01 179.626 214.252 179.425 214.46C179.223 214.666 178.975 214.827 178.679 214.943C178.383 215.057 178.05 215.114 177.681 215.114ZM183.586 209.545V210.256H180.76V209.545H183.586ZM181.584 208.239H182.422V213.438C182.422 213.674 182.456 213.852 182.525 213.97C182.596 214.086 182.686 214.164 182.795 214.205C182.906 214.242 183.023 214.261 183.146 214.261C183.238 214.261 183.314 214.257 183.373 214.247C183.433 214.235 183.48 214.226 183.515 214.219L183.686 214.972C183.629 214.993 183.55 215.014 183.448 215.036C183.346 215.059 183.217 215.071 183.061 215.071C182.824 215.071 182.592 215.02 182.365 214.918C182.14 214.817 181.953 214.661 181.804 214.453C181.657 214.245 181.584 213.982 181.584 213.665V208.239ZM186.083 215L184.421 209.545H185.302L186.481 213.722H186.537L187.702 209.545H188.597L189.748 213.707H189.805L190.983 209.545H191.864L190.202 215H189.378L188.185 210.81H188.1L186.907 215H186.083ZM195.002 215.114C194.51 215.114 194.078 214.996 193.706 214.762C193.337 214.528 193.048 214.2 192.84 213.778C192.634 213.357 192.531 212.865 192.531 212.301C192.531 211.733 192.634 211.237 192.84 210.813C193.048 210.389 193.337 210.06 193.706 209.826C194.078 209.592 194.51 209.474 195.002 209.474C195.495 209.474 195.926 209.592 196.295 209.826C196.667 210.06 196.956 210.389 197.162 210.813C197.37 211.237 197.474 211.733 197.474 212.301C197.474 212.865 197.37 213.357 197.162 213.778C196.956 214.2 196.667 214.528 196.295 214.762C195.926 214.996 195.495 215.114 195.002 215.114ZM195.002 214.361C195.377 214.361 195.684 214.265 195.926 214.073C196.167 213.881 196.346 213.629 196.462 213.317C196.578 213.004 196.636 212.666 196.636 212.301C196.636 211.937 196.578 211.597 196.462 211.282C196.346 210.967 196.167 210.713 195.926 210.518C195.684 210.324 195.377 210.227 195.002 210.227C194.628 210.227 194.321 210.324 194.079 210.518C193.838 210.713 193.659 210.967 193.543 211.282C193.427 211.597 193.369 211.937 193.369 212.301C193.369 212.666 193.427 213.004 193.543 213.317C193.659 213.629 193.838 213.881 194.079 214.073C194.321 214.265 194.628 214.361 195.002 214.361ZM198.753 215V209.545H199.563V210.369H199.62C199.719 210.099 199.899 209.88 200.16 209.712C200.42 209.544 200.714 209.46 201.04 209.46C201.102 209.46 201.179 209.461 201.271 209.464C201.363 209.466 201.433 209.47 201.481 209.474V210.327C201.452 210.32 201.387 210.309 201.285 210.295C201.186 210.278 201.081 210.27 200.969 210.27C200.704 210.27 200.467 210.326 200.259 210.437C200.053 210.546 199.89 210.697 199.769 210.891C199.651 211.083 199.591 211.302 199.591 211.548V215H198.753ZM203.255 213.011L203.241 211.974H203.412L205.798 209.545H206.835L204.292 212.116H204.221L203.255 213.011ZM202.474 215V207.727H203.312V215H202.474ZM205.94 215L203.809 212.301L204.406 211.719L207.005 215H205.94ZM214.817 209.545C214.774 209.186 214.602 208.906 214.298 208.707C213.995 208.509 213.624 208.409 213.183 208.409C212.861 208.409 212.58 208.461 212.338 208.565C212.099 208.67 211.912 208.813 211.777 208.995C211.645 209.177 211.578 209.384 211.578 209.616C211.578 209.811 211.624 209.978 211.717 210.117C211.811 210.254 211.932 210.369 212.079 210.462C212.226 210.552 212.38 210.626 212.541 210.685C212.702 210.742 212.85 210.788 212.985 210.824L213.723 211.023C213.913 211.072 214.123 211.141 214.355 211.229C214.59 211.316 214.813 211.436 215.026 211.587C215.242 211.737 215.419 211.928 215.559 212.163C215.699 212.397 215.769 212.685 215.769 213.026C215.769 213.419 215.666 213.774 215.46 214.091C215.256 214.408 214.958 214.66 214.565 214.847C214.174 215.034 213.7 215.128 213.141 215.128C212.62 215.128 212.169 215.044 211.788 214.876C211.409 214.708 211.111 214.473 210.893 214.173C210.677 213.872 210.556 213.523 210.527 213.125H211.436C211.46 213.4 211.552 213.627 211.713 213.807C211.877 213.984 212.083 214.117 212.331 214.205C212.582 214.29 212.852 214.332 213.141 214.332C213.477 214.332 213.779 214.278 214.046 214.169C214.314 214.058 214.526 213.904 214.682 213.707C214.838 213.509 214.916 213.277 214.916 213.011C214.916 212.77 214.849 212.573 214.714 212.422C214.579 212.27 214.401 212.147 214.181 212.053C213.961 211.958 213.723 211.875 213.468 211.804L212.573 211.548C212.004 211.385 211.555 211.152 211.223 210.849C210.892 210.546 210.726 210.149 210.726 209.659C210.726 209.252 210.836 208.897 211.056 208.594C211.279 208.288 211.577 208.052 211.951 207.884C212.328 207.713 212.748 207.628 213.212 207.628C213.681 207.628 214.097 207.712 214.462 207.88C214.826 208.046 215.115 208.273 215.328 208.562C215.544 208.851 215.657 209.179 215.669 209.545H214.817ZM218.339 215L216.677 209.545H217.558L218.737 213.722H218.793L219.958 209.545H220.853L222.004 213.707H222.06L223.239 209.545H224.12L222.458 215H221.634L220.441 210.81H220.356L219.163 215H218.339ZM225.228 215V209.545H226.066V215H225.228ZM225.654 208.636C225.491 208.636 225.35 208.581 225.232 208.469C225.116 208.358 225.058 208.224 225.058 208.068C225.058 207.912 225.116 207.778 225.232 207.667C225.35 207.556 225.491 207.5 225.654 207.5C225.817 207.5 225.957 207.556 226.073 207.667C226.192 207.778 226.251 207.912 226.251 208.068C226.251 208.224 226.192 208.358 226.073 208.469C225.957 208.581 225.817 208.636 225.654 208.636ZM229.973 209.545V210.256H227.146V209.545H229.973ZM227.97 208.239H228.808V213.438C228.808 213.674 228.843 213.852 228.911 213.97C228.982 214.086 229.072 214.164 229.181 214.205C229.293 214.242 229.41 214.261 229.533 214.261C229.625 214.261 229.701 214.257 229.76 214.247C229.819 214.235 229.867 214.226 229.902 214.219L230.073 214.972C230.016 214.993 229.936 215.014 229.835 215.036C229.733 215.059 229.604 215.071 229.448 215.071C229.211 215.071 228.979 215.02 228.752 214.918C228.527 214.817 228.34 214.661 228.191 214.453C228.044 214.245 227.97 213.982 227.97 213.665V208.239ZM233.391 215.114C232.88 215.114 232.439 214.993 232.07 214.751C231.701 214.51 231.417 214.177 231.218 213.754C231.019 213.33 230.92 212.846 230.92 212.301C230.92 211.747 231.021 211.258 231.225 210.835C231.431 210.408 231.717 210.076 232.084 209.837C232.454 209.595 232.885 209.474 233.377 209.474C233.76 209.474 234.106 209.545 234.414 209.688C234.722 209.83 234.974 210.028 235.17 210.284C235.367 210.54 235.489 210.838 235.536 211.179H234.698C234.634 210.93 234.492 210.71 234.272 210.518C234.054 210.324 233.76 210.227 233.391 210.227C233.064 210.227 232.778 210.312 232.532 210.483C232.288 210.651 232.097 210.889 231.96 211.197C231.825 211.502 231.758 211.861 231.758 212.273C231.758 212.694 231.824 213.061 231.956 213.374C232.091 213.686 232.281 213.929 232.525 214.102C232.771 214.274 233.06 214.361 233.391 214.361C233.609 214.361 233.807 214.323 233.984 214.247C234.162 214.171 234.312 214.062 234.435 213.92C234.558 213.778 234.646 213.608 234.698 213.409H235.536C235.489 213.731 235.372 214.021 235.184 214.279C235 214.535 234.755 214.738 234.449 214.89C234.146 215.039 233.794 215.114 233.391 215.114ZM237.599 211.719V215H236.761V207.727H237.599V210.398H237.67C237.798 210.116 237.99 209.892 238.246 209.727C238.504 209.558 238.847 209.474 239.275 209.474C239.647 209.474 239.973 209.549 240.252 209.698C240.531 209.845 240.748 210.071 240.902 210.376C241.058 210.679 241.136 211.065 241.136 211.534V215H240.298V211.591C240.298 211.158 240.186 210.823 239.961 210.586C239.738 210.347 239.429 210.227 239.034 210.227C238.759 210.227 238.513 210.285 238.295 210.401C238.08 210.517 237.909 210.687 237.784 210.909C237.661 211.132 237.599 211.402 237.599 211.719Z" fill="white"/>
<path d="M20.896 194.509V193.727H26.3506V194.509H24.0637V201H23.183V194.509H20.896ZM28.0081 193.727L30.1672 199.849H30.2524L32.4115 193.727H33.3348L30.6643 201H29.7552L27.0848 193.727H28.0081Z" fill="white"/>
<path d="M50.4403 263.364C50.4403 262.469 50.5563 261.646 50.7884 260.896C51.0227 260.143 51.3565 259.45 51.7898 258.818H52.5284C52.358 259.053 52.1982 259.341 52.049 259.685C51.9022 260.026 51.7732 260.401 51.6619 260.81C51.5507 261.218 51.4631 261.639 51.3991 262.075C51.3376 262.51 51.3068 262.94 51.3068 263.364C51.3068 263.927 51.3613 264.499 51.4702 265.079C51.5791 265.659 51.7259 266.197 51.9105 266.695C52.0952 267.192 52.3011 267.597 52.5284 267.909H51.7898C51.3565 267.277 51.0227 266.586 50.7884 265.835C50.5563 265.082 50.4403 264.259 50.4403 263.364ZM59.6458 259.727V267H58.7935L54.8304 261.29H54.7594V267H53.8787V259.727H54.731L58.7083 265.452H58.7793V259.727H59.6458ZM63.5103 267.114C63.0179 267.114 62.5858 266.996 62.2141 266.762C61.8448 266.528 61.556 266.2 61.3477 265.778C61.1417 265.357 61.0387 264.865 61.0387 264.301C61.0387 263.733 61.1417 263.237 61.3477 262.813C61.556 262.389 61.8448 262.06 62.2141 261.826C62.5858 261.592 63.0179 261.474 63.5103 261.474C64.0027 261.474 64.4336 261.592 64.8029 261.826C65.1746 262.06 65.4634 262.389 65.6694 262.813C65.8777 263.237 65.9819 263.733 65.9819 264.301C65.9819 264.865 65.8777 265.357 65.6694 265.778C65.4634 266.2 65.1746 266.528 64.8029 266.762C64.4336 266.996 64.0027 267.114 63.5103 267.114ZM63.5103 266.361C63.8844 266.361 64.1921 266.265 64.4336 266.073C64.6751 265.881 64.8538 265.629 64.9698 265.317C65.0858 265.004 65.1438 264.666 65.1438 264.301C65.1438 263.937 65.0858 263.597 64.9698 263.282C64.8538 262.967 64.6751 262.713 64.4336 262.518C64.1921 262.324 63.8844 262.227 63.5103 262.227C63.1362 262.227 62.8285 262.324 62.587 262.518C62.3455 262.713 62.1668 262.967 62.0508 263.282C61.9348 263.597 61.8768 263.937 61.8768 264.301C61.8768 264.666 61.9348 265.004 62.0508 265.317C62.1668 265.629 62.3455 265.881 62.587 266.073C62.8285 266.265 63.1362 266.361 63.5103 266.361ZM72.4458 261.545V262.256H69.6191V261.545H72.4458ZM70.443 260.239H71.2811V265.438C71.2811 265.674 71.3154 265.852 71.3841 265.97C71.4551 266.086 71.545 266.164 71.6539 266.205C71.7652 266.242 71.8824 266.261 72.0055 266.261C72.0978 266.261 72.1736 266.257 72.2328 266.247C72.292 266.235 72.3393 266.226 72.3748 266.219L72.5453 266.972C72.4885 266.993 72.4092 267.014 72.3074 267.036C72.2056 267.059 72.0765 267.071 71.9203 267.071C71.6835 267.071 71.4515 267.02 71.2243 266.918C70.9993 266.817 70.8123 266.661 70.6632 266.453C70.5164 266.245 70.443 265.982 70.443 265.665V260.239ZM75.9348 267.114C75.4093 267.114 74.9559 266.998 74.5748 266.766C74.196 266.531 73.9036 266.205 73.6976 265.786C73.494 265.364 73.3922 264.874 73.3922 264.315C73.3922 263.757 73.494 263.264 73.6976 262.838C73.9036 262.41 74.19 262.076 74.557 261.837C74.9263 261.595 75.3572 261.474 75.8496 261.474C76.1337 261.474 76.4142 261.522 76.6912 261.616C76.9682 261.711 77.2203 261.865 77.4476 262.078C77.6749 262.289 77.856 262.568 77.9909 262.916C78.1259 263.264 78.1934 263.693 78.1934 264.202V264.557H73.9888V263.832H77.3411C77.3411 263.525 77.2795 263.25 77.1564 263.009C77.0357 262.767 76.8629 262.576 76.638 262.437C76.4154 262.297 76.1526 262.227 75.8496 262.227C75.5158 262.227 75.227 262.31 74.9831 262.476C74.7417 262.639 74.5558 262.852 74.4256 263.115C74.2954 263.378 74.2303 263.66 74.2303 263.96V264.443C74.2303 264.855 74.3013 265.204 74.4434 265.491C74.5878 265.775 74.7878 265.991 75.0435 266.141C75.2992 266.287 75.5963 266.361 75.9348 266.361C76.155 266.361 76.3539 266.33 76.5314 266.268C76.7114 266.205 76.8664 266.11 76.9966 265.984C77.1268 265.857 77.2275 265.698 77.2985 265.509L78.1081 265.736C78.0229 266.01 77.8797 266.252 77.6784 266.46C77.4772 266.666 77.2286 266.827 76.9327 266.943C76.6368 267.057 76.3042 267.114 75.9348 267.114ZM81.6841 267.114C81.1728 267.114 80.7324 266.993 80.3631 266.751C79.9938 266.51 79.7097 266.177 79.5108 265.754C79.312 265.33 79.2125 264.846 79.2125 264.301C79.2125 263.747 79.3143 263.258 79.5179 262.835C79.7239 262.408 80.0104 262.076 80.3773 261.837C80.7466 261.595 81.1775 261.474 81.6699 261.474C82.0534 261.474 82.3991 261.545 82.7069 261.688C83.0146 261.83 83.2667 262.028 83.4632 262.284C83.6597 262.54 83.7817 262.838 83.829 263.179H82.9909C82.927 262.93 82.785 262.71 82.5648 262.518C82.347 262.324 82.0534 262.227 81.6841 262.227C81.3574 262.227 81.071 262.312 80.8248 262.483C80.5809 262.651 80.3903 262.889 80.253 263.197C80.1181 263.502 80.0506 263.861 80.0506 264.273C80.0506 264.694 80.1169 265.061 80.2495 265.374C80.3844 265.686 80.5738 265.929 80.8176 266.102C81.0639 266.274 81.3527 266.361 81.6841 266.361C81.9019 266.361 82.0996 266.323 82.2772 266.247C82.4547 266.171 82.6051 266.062 82.7282 265.92C82.8513 265.778 82.9389 265.608 82.9909 265.409H83.829C83.7817 265.731 83.6645 266.021 83.4775 266.279C83.2928 266.535 83.0478 266.738 82.7424 266.89C82.4393 267.039 82.0866 267.114 81.6841 267.114ZM85.8922 263.719V267H85.0542V259.727H85.8922V262.398H85.9632C86.0911 262.116 86.2828 261.892 86.5385 261.727C86.7966 261.558 87.1399 261.474 87.5684 261.474C87.94 261.474 88.2656 261.549 88.5449 261.698C88.8243 261.845 89.0409 262.071 89.1948 262.376C89.351 262.679 89.4292 263.065 89.4292 263.534V267H88.5911V263.591C88.5911 263.158 88.4786 262.823 88.2537 262.586C88.0312 262.347 87.7222 262.227 87.3269 262.227C87.0523 262.227 86.806 262.285 86.5882 262.401C86.3728 262.517 86.2024 262.687 86.0769 262.909C85.9538 263.132 85.8922 263.402 85.8922 263.719ZM91.8004 263.719V267H90.9624V261.545H91.772V262.398H91.843C91.9709 262.121 92.165 261.898 92.4254 261.73C92.6858 261.56 93.022 261.474 93.4339 261.474C93.8033 261.474 94.1264 261.55 94.4034 261.702C94.6804 261.851 94.8958 262.078 95.0497 262.384C95.2036 262.687 95.2805 263.07 95.2805 263.534V267H94.4425V263.591C94.4425 263.162 94.3312 262.829 94.1087 262.589C93.8861 262.348 93.5807 262.227 93.1925 262.227C92.925 262.227 92.6858 262.285 92.4751 262.401C92.2668 262.517 92.1023 262.687 91.9815 262.909C91.8608 263.132 91.8004 263.402 91.8004 263.719ZM99.0279 267.114C98.5355 267.114 98.1034 266.996 97.7317 266.762C97.3624 266.528 97.0736 266.2 96.8652 265.778C96.6593 265.357 96.5563 264.865 96.5563 264.301C96.5563 263.733 96.6593 263.237 96.8652 262.813C97.0736 262.389 97.3624 262.06 97.7317 261.826C98.1034 261.592 98.5355 261.474 99.0279 261.474C99.5203 261.474 99.9512 261.592 100.32 261.826C100.692 262.06 100.981 262.389 101.187 262.813C101.395 263.237 101.499 263.733 101.499 264.301C101.499 264.865 101.395 265.357 101.187 265.778C100.981 266.2 100.692 266.528 100.32 266.762C99.9512 266.996 99.5203 267.114 99.0279 267.114ZM99.0279 266.361C99.4019 266.361 99.7097 266.265 99.9512 266.073C100.193 265.881 100.371 265.629 100.487 265.317C100.603 265.004 100.661 264.666 100.661 264.301C100.661 263.937 100.603 263.597 100.487 263.282C100.371 262.967 100.193 262.713 99.9512 262.518C99.7097 262.324 99.4019 262.227 99.0279 262.227C98.6538 262.227 98.3461 262.324 98.1046 262.518C97.8631 262.713 97.6844 262.967 97.5684 263.282C97.4524 263.597 97.3944 263.937 97.3944 264.301C97.3944 264.666 97.4524 265.004 97.5684 265.317C97.6844 265.629 97.8631 265.881 98.1046 266.073C98.3461 266.265 98.6538 266.361 99.0279 266.361ZM103.617 259.727V267H102.779V259.727H103.617ZM107.368 267.114C106.875 267.114 106.443 266.996 106.072 266.762C105.702 266.528 105.413 266.2 105.205 265.778C104.999 265.357 104.896 264.865 104.896 264.301C104.896 263.733 104.999 263.237 105.205 262.813C105.413 262.389 105.702 262.06 106.072 261.826C106.443 261.592 106.875 261.474 107.368 261.474C107.86 261.474 108.291 261.592 108.66 261.826C109.032 262.06 109.321 262.389 109.527 262.813C109.735 263.237 109.839 263.733 109.839 264.301C109.839 264.865 109.735 265.357 109.527 265.778C109.321 266.2 109.032 266.528 108.66 266.762C108.291 266.996 107.86 267.114 107.368 267.114ZM107.368 266.361C107.742 266.361 108.05 266.265 108.291 266.073C108.532 265.881 108.711 265.629 108.827 265.317C108.943 265.004 109.001 264.666 109.001 264.301C109.001 263.937 108.943 263.597 108.827 263.282C108.711 262.967 108.532 262.713 108.291 262.518C108.05 262.324 107.742 262.227 107.368 262.227C106.994 262.227 106.686 262.324 106.444 262.518C106.203 262.713 106.024 262.967 105.908 263.282C105.792 263.597 105.734 263.937 105.734 264.301C105.734 264.666 105.792 265.004 105.908 265.317C106.024 265.629 106.203 265.881 106.444 266.073C106.686 266.265 106.994 266.361 107.368 266.361ZM113.32 269.159C112.915 269.159 112.567 269.107 112.276 269.003C111.985 268.901 111.742 268.766 111.548 268.598C111.357 268.432 111.204 268.255 111.09 268.065L111.758 267.597C111.834 267.696 111.929 267.81 112.045 267.938C112.161 268.068 112.32 268.18 112.521 268.275C112.725 268.372 112.991 268.42 113.32 268.42C113.761 268.42 114.124 268.314 114.411 268.101C114.697 267.888 114.84 267.554 114.84 267.099V265.991H114.769C114.708 266.091 114.62 266.214 114.506 266.361C114.395 266.505 114.234 266.634 114.023 266.748C113.815 266.859 113.533 266.915 113.178 266.915C112.738 266.915 112.343 266.811 111.992 266.602C111.644 266.394 111.368 266.091 111.165 265.693C110.964 265.295 110.863 264.812 110.863 264.244C110.863 263.686 110.961 263.199 111.158 262.785C111.354 262.368 111.628 262.046 111.978 261.819C112.328 261.589 112.733 261.474 113.192 261.474C113.548 261.474 113.829 261.534 114.038 261.652C114.248 261.768 114.409 261.901 114.521 262.05C114.634 262.196 114.722 262.317 114.783 262.412H114.869V261.545H115.678V267.156C115.678 267.625 115.572 268.006 115.359 268.3C115.148 268.596 114.864 268.812 114.506 268.95C114.151 269.089 113.756 269.159 113.32 269.159ZM113.292 266.162C113.628 266.162 113.912 266.085 114.144 265.931C114.376 265.777 114.553 265.556 114.673 265.267C114.794 264.978 114.854 264.633 114.854 264.23C114.854 263.837 114.795 263.49 114.677 263.19C114.558 262.889 114.383 262.653 114.151 262.483C113.919 262.312 113.633 262.227 113.292 262.227C112.937 262.227 112.641 262.317 112.404 262.497C112.17 262.677 111.993 262.919 111.875 263.222C111.759 263.525 111.701 263.861 111.701 264.23C111.701 264.609 111.76 264.944 111.879 265.235C111.999 265.524 112.177 265.751 112.411 265.917C112.648 266.08 112.942 266.162 113.292 266.162ZM117.752 269.045C117.61 269.045 117.483 269.034 117.372 269.01C117.261 268.989 117.184 268.967 117.141 268.946L117.354 268.207C117.558 268.259 117.738 268.278 117.894 268.264C118.05 268.25 118.189 268.18 118.31 268.055C118.433 267.932 118.545 267.732 118.647 267.455L118.803 267.028L116.786 261.545H117.695L119.201 265.892H119.258L120.763 261.545H121.673L119.357 267.795C119.253 268.077 119.124 268.31 118.97 268.495C118.816 268.682 118.638 268.821 118.434 268.911C118.233 269 118.005 269.045 117.752 269.045ZM126.827 267L125.165 261.545H126.046L127.225 265.722H127.282L128.446 261.545H129.341L130.492 265.707H130.549L131.728 261.545H132.608L130.946 267H130.123L128.929 262.81H128.844L127.651 267H126.827ZM135.321 267.128C134.976 267.128 134.662 267.063 134.38 266.933C134.099 266.8 133.875 266.609 133.709 266.361C133.543 266.11 133.461 265.807 133.461 265.452C133.461 265.139 133.522 264.886 133.645 264.692C133.768 264.495 133.933 264.341 134.139 264.23C134.345 264.119 134.572 264.036 134.821 263.982C135.072 263.925 135.324 263.88 135.577 263.847C135.908 263.804 136.177 263.772 136.383 263.751C136.592 263.727 136.743 263.688 136.838 263.634C136.935 263.579 136.983 263.484 136.983 263.349V263.321C136.983 262.971 136.887 262.698 136.696 262.504C136.506 262.31 136.219 262.213 135.833 262.213C135.433 262.213 135.119 262.301 134.892 262.476C134.664 262.651 134.505 262.838 134.412 263.037L133.617 262.753C133.759 262.421 133.948 262.163 134.185 261.979C134.424 261.792 134.685 261.661 134.966 261.588C135.25 261.512 135.53 261.474 135.804 261.474C135.98 261.474 136.181 261.496 136.408 261.538C136.638 261.579 136.859 261.663 137.072 261.79C137.288 261.918 137.466 262.111 137.608 262.369C137.75 262.627 137.821 262.973 137.821 263.406V267H136.983V266.261H136.941C136.884 266.38 136.789 266.506 136.657 266.641C136.524 266.776 136.348 266.891 136.127 266.986C135.907 267.08 135.639 267.128 135.321 267.128ZM135.449 266.375C135.781 266.375 136.06 266.31 136.287 266.18C136.517 266.049 136.69 265.881 136.806 265.675C136.924 265.469 136.983 265.253 136.983 265.026V264.259C136.948 264.301 136.87 264.34 136.749 264.376C136.631 264.409 136.493 264.438 136.337 264.464C136.183 264.488 136.033 264.509 135.886 264.528C135.742 264.545 135.624 264.559 135.534 264.571C135.317 264.599 135.113 264.646 134.924 264.71C134.737 264.771 134.585 264.865 134.469 264.99C134.355 265.113 134.299 265.281 134.299 265.494C134.299 265.786 134.406 266.006 134.622 266.155C134.84 266.302 135.115 266.375 135.449 266.375ZM143.215 262.767L142.462 262.98C142.414 262.855 142.345 262.733 142.252 262.614C142.162 262.494 142.039 262.394 141.883 262.316C141.727 262.238 141.527 262.199 141.283 262.199C140.949 262.199 140.671 262.276 140.448 262.43C140.228 262.581 140.118 262.774 140.118 263.009C140.118 263.217 140.194 263.381 140.345 263.502C140.497 263.623 140.734 263.723 141.056 263.804L141.865 264.003C142.353 264.121 142.716 264.302 142.955 264.546C143.195 264.788 143.314 265.099 143.314 265.48C143.314 265.793 143.224 266.072 143.044 266.318C142.867 266.564 142.618 266.759 142.298 266.901C141.979 267.043 141.607 267.114 141.183 267.114C140.627 267.114 140.167 266.993 139.802 266.751C139.437 266.51 139.207 266.157 139.11 265.693L139.905 265.494C139.981 265.788 140.124 266.008 140.335 266.155C140.548 266.302 140.826 266.375 141.169 266.375C141.56 266.375 141.87 266.292 142.1 266.126C142.332 265.958 142.448 265.757 142.448 265.523C142.448 265.333 142.381 265.175 142.249 265.047C142.116 264.917 141.913 264.82 141.638 264.756L140.729 264.543C140.229 264.424 139.862 264.241 139.628 263.992C139.396 263.741 139.28 263.428 139.28 263.051C139.28 262.743 139.366 262.471 139.539 262.234C139.714 261.998 139.952 261.812 140.253 261.677C140.556 261.542 140.899 261.474 141.283 261.474C141.823 261.474 142.246 261.593 142.554 261.83C142.864 262.066 143.084 262.379 143.215 262.767ZM148.226 259.727V267H147.388V259.727H148.226ZM152.048 267.114C151.523 267.114 151.069 266.998 150.688 266.766C150.309 266.531 150.017 266.205 149.811 265.786C149.607 265.364 149.506 264.874 149.506 264.315C149.506 263.757 149.607 263.264 149.811 262.838C150.017 262.41 150.303 262.076 150.67 261.837C151.04 261.595 151.47 261.474 151.963 261.474C152.247 261.474 152.528 261.522 152.805 261.616C153.081 261.711 153.334 261.865 153.561 262.078C153.788 262.289 153.969 262.568 154.104 262.916C154.239 263.264 154.307 263.693 154.307 264.202V264.557H150.102V263.832H153.454C153.454 263.525 153.393 263.25 153.27 263.009C153.149 262.767 152.976 262.576 152.751 262.437C152.529 262.297 152.266 262.227 151.963 262.227C151.629 262.227 151.34 262.31 151.096 262.476C150.855 262.639 150.669 262.852 150.539 263.115C150.409 263.378 150.344 263.66 150.344 263.96V264.443C150.344 264.855 150.415 265.204 150.557 265.491C150.701 265.775 150.901 265.991 151.157 266.141C151.412 266.287 151.71 266.361 152.048 266.361C152.268 266.361 152.467 266.33 152.645 266.268C152.825 266.205 152.98 266.11 153.11 265.984C153.24 265.857 153.341 265.698 153.412 265.509L154.221 265.736C154.136 266.01 153.993 266.252 153.792 266.46C153.59 266.666 153.342 266.827 153.046 266.943C152.75 267.057 152.417 267.114 152.048 267.114ZM158.01 261.545V262.256H155.07V261.545H158.01ZM155.951 267V260.793C155.951 260.48 156.024 260.22 156.171 260.011C156.318 259.803 156.508 259.647 156.743 259.543C156.977 259.438 157.224 259.386 157.485 259.386C157.691 259.386 157.859 259.403 157.989 259.436C158.119 259.469 158.216 259.5 158.28 259.528L158.039 260.253C157.996 260.239 157.937 260.221 157.861 260.2C157.788 260.178 157.691 260.168 157.57 260.168C157.293 260.168 157.093 260.237 156.97 260.377C156.849 260.517 156.789 260.722 156.789 260.991V267H155.951ZM161.557 261.545V262.256H158.73V261.545H161.557ZM159.554 260.239H160.392V265.438C160.392 265.674 160.427 265.852 160.495 265.97C160.566 266.086 160.656 266.164 160.765 266.205C160.877 266.242 160.994 266.261 161.117 266.261C161.209 266.261 161.285 266.257 161.344 266.247C161.403 266.235 161.451 266.226 161.486 266.219L161.657 266.972C161.6 266.993 161.52 267.014 161.419 267.036C161.317 267.059 161.188 267.071 161.032 267.071C160.795 267.071 160.563 267.02 160.336 266.918C160.111 266.817 159.924 266.661 159.775 266.453C159.628 266.245 159.554 265.982 159.554 265.665V260.239ZM165.63 267V261.545H166.468V267H165.63ZM166.056 260.636C165.893 260.636 165.752 260.581 165.634 260.469C165.518 260.358 165.46 260.224 165.46 260.068C165.46 259.912 165.518 259.778 165.634 259.667C165.752 259.556 165.893 259.5 166.056 259.5C166.22 259.5 166.359 259.556 166.475 259.667C166.594 259.778 166.653 259.912 166.653 260.068C166.653 260.224 166.594 260.358 166.475 260.469C166.359 260.581 166.22 260.636 166.056 260.636ZM168.841 263.719V267H168.003V261.545H168.813V262.398H168.884C169.012 262.121 169.206 261.898 169.466 261.73C169.727 261.56 170.063 261.474 170.475 261.474C170.844 261.474 171.167 261.55 171.444 261.702C171.721 261.851 171.937 262.078 172.091 262.384C172.245 262.687 172.322 263.07 172.322 263.534V267H171.483V263.591C171.483 263.162 171.372 262.829 171.15 262.589C170.927 262.348 170.622 262.227 170.233 262.227C169.966 262.227 169.727 262.285 169.516 262.401C169.308 262.517 169.143 262.687 169.023 262.909C168.902 263.132 168.841 263.402 168.841 263.719ZM177.504 263.719V267H176.665V259.727H177.504V262.398H177.575C177.702 262.116 177.894 261.892 178.15 261.727C178.408 261.558 178.751 261.474 179.18 261.474C179.551 261.474 179.877 261.549 180.156 261.698C180.436 261.845 180.652 262.071 180.806 262.376C180.962 262.679 181.04 263.065 181.04 263.534V267H180.202V263.591C180.202 263.158 180.09 262.823 179.865 262.586C179.643 262.347 179.334 262.227 178.938 262.227C178.664 262.227 178.417 262.285 178.2 262.401C177.984 262.517 177.814 262.687 177.688 262.909C177.565 263.132 177.504 263.402 177.504 263.719ZM184.861 267.114C184.335 267.114 183.882 266.998 183.501 266.766C183.122 266.531 182.829 266.205 182.623 265.786C182.42 265.364 182.318 264.874 182.318 264.315C182.318 263.757 182.42 263.264 182.623 262.838C182.829 262.41 183.116 262.076 183.483 261.837C183.852 261.595 184.283 261.474 184.775 261.474C185.059 261.474 185.34 261.522 185.617 261.616C185.894 261.711 186.146 261.865 186.373 262.078C186.601 262.289 186.782 262.568 186.917 262.916C187.052 263.264 187.119 263.693 187.119 264.202V264.557H182.915V263.832H186.267C186.267 263.525 186.205 263.25 186.082 263.009C185.961 262.767 185.789 262.576 185.564 262.437C185.341 262.297 185.078 262.227 184.775 262.227C184.442 262.227 184.153 262.31 183.909 262.476C183.667 262.639 183.482 262.852 183.351 263.115C183.221 263.378 183.156 263.66 183.156 263.96V264.443C183.156 264.855 183.227 265.204 183.369 265.491C183.514 265.775 183.714 265.991 183.969 266.141C184.225 266.287 184.522 266.361 184.861 266.361C185.081 266.361 185.28 266.33 185.457 266.268C185.637 266.205 185.792 266.11 185.922 265.984C186.053 265.857 186.153 265.698 186.224 265.509L187.034 265.736C186.949 266.01 186.805 266.252 186.604 266.46C186.403 266.666 186.154 266.827 185.858 266.943C185.563 267.057 185.23 267.114 184.861 267.114ZM188.394 267V261.545H189.204V262.369H189.26C189.36 262.099 189.54 261.88 189.8 261.712C190.061 261.544 190.354 261.46 190.681 261.46C190.742 261.46 190.819 261.461 190.912 261.464C191.004 261.466 191.074 261.47 191.121 261.474V262.327C191.093 262.32 191.028 262.309 190.926 262.295C190.827 262.278 190.721 262.27 190.61 262.27C190.345 262.27 190.108 262.326 189.9 262.437C189.694 262.546 189.53 262.697 189.41 262.891C189.291 263.083 189.232 263.302 189.232 263.548V267H188.394ZM194.236 267.114C193.71 267.114 193.257 266.998 192.876 266.766C192.497 266.531 192.204 266.205 191.998 265.786C191.795 265.364 191.693 264.874 191.693 264.315C191.693 263.757 191.795 263.264 191.998 262.838C192.204 262.41 192.491 262.076 192.858 261.837C193.227 261.595 193.658 261.474 194.15 261.474C194.434 261.474 194.715 261.522 194.992 261.616C195.269 261.711 195.521 261.865 195.748 262.078C195.976 262.289 196.157 262.568 196.292 262.916C196.427 263.264 196.494 263.693 196.494 264.202V264.557H192.29V263.832H195.642C195.642 263.525 195.58 263.25 195.457 263.009C195.336 262.767 195.164 262.576 194.939 262.437C194.716 262.297 194.453 262.227 194.15 262.227C193.817 262.227 193.528 262.31 193.284 262.476C193.042 262.639 192.857 262.852 192.726 263.115C192.596 263.378 192.531 263.66 192.531 263.96V264.443C192.531 264.855 192.602 265.204 192.744 265.491C192.889 265.775 193.089 265.991 193.344 266.141C193.6 266.287 193.897 266.361 194.236 266.361C194.456 266.361 194.655 266.33 194.832 266.268C195.012 266.205 195.167 266.11 195.297 265.984C195.428 265.857 195.528 265.698 195.599 265.509L196.409 265.736C196.324 266.01 196.18 266.252 195.979 266.46C195.778 266.666 195.529 266.827 195.233 266.943C194.938 267.057 194.605 267.114 194.236 267.114ZM199.559 263.932C199.559 264.827 199.442 265.651 199.207 266.403C198.975 267.154 198.643 267.845 198.209 268.477H197.471C197.641 268.243 197.8 267.954 197.947 267.611C198.096 267.27 198.226 266.896 198.337 266.489C198.448 266.079 198.535 265.656 198.596 265.221C198.66 264.783 198.692 264.353 198.692 263.932C198.692 263.368 198.638 262.797 198.529 262.217C198.42 261.637 198.273 261.098 198.089 260.601C197.904 260.104 197.698 259.699 197.471 259.386H198.209C198.643 260.018 198.975 260.711 199.207 261.464C199.442 262.214 199.559 263.037 199.559 263.932Z" fill="white"/>
</svg>
